<svg width="70" height="85" viewBox="0 0 70 85" fill="none" xmlns="http://www.w3.org/2000/svg">
<g filter="url(#filter0_d_1_488)">
<mask id="path-1-outside-1_1_488" maskUnits="userSpaceOnUse" x="10" y="10" width="50" height="65" fill="black">
<rect fill="white" x="10" y="10" width="50" height="65"/>
<path d="M49.082 17.0068H48.9609V23.4131C49.0143 25.6021 49.041 27.5246 49.041 29.1797L48.0801 29.8203H33.0244C29.8744 29.8203 27.4181 30.3274 25.6562 31.3418C23.8945 32.3561 23.0138 33.9577 23.0137 36.1465C23.0137 37.2143 23.2805 38.2828 23.8145 39.3506C24.3483 40.3649 24.9622 41.2191 25.6562 41.9131C27.3646 40.3649 29.3399 39.1371 31.582 38.2295C33.8778 37.3219 36.2807 36.8682 38.79 36.8682C41.2994 36.8682 43.4087 37.2952 45.1172 38.1494C46.8789 38.9502 48.2669 39.9912 49.2812 41.2725C50.349 42.5537 51.123 43.8884 51.6035 45.2764C52.084 46.6645 52.3242 47.9198 52.3242 49.041C52.3241 53.4722 49.5218 56.8628 43.916 59.2119L40.1514 53.8457C41.9133 52.9915 43.4354 51.9506 44.7168 50.7227C46.0515 49.4413 46.7188 47.8657 46.7188 45.9971C46.7187 44.449 46.1848 43.3278 45.1172 42.6338C44.0494 41.8863 42.5806 41.5127 40.7119 41.5127C38.2028 41.5127 35.9339 42.1267 33.9053 43.3545C31.9298 44.5291 30.3543 46.0779 29.1797 48C28.0587 49.8685 27.4981 51.8438 27.498 53.9258C27.498 55.7944 28.1119 57.7436 29.3398 59.7725C30.5678 61.7479 32.7039 63.6428 35.7471 65.458C38.8437 67.2733 43.088 68.9022 48.4805 70.3438L47.5996 73.7871C41.1928 72.1854 36.0401 70.2372 32.1426 67.9414C28.2453 65.6457 25.3895 63.1626 23.5742 60.4932C21.8123 57.8236 20.9307 55.1272 20.9307 52.4043C20.9307 49.6814 21.7056 47.1451 23.2539 44.7959C21.5988 43.4078 20.1567 41.6997 18.9287 39.6709C17.7541 37.5887 17.167 35.4794 17.167 33.3438C17.167 30.5143 18.3149 28.2188 20.6104 26.457C22.9595 24.6952 26.6169 23.8135 31.582 23.8135H42.3936V17.0068H13.7236L11 11.8008V11H43.0752L49.082 17.0068ZM58.0908 16.2061V17.0068H49.873L43.8662 11H55.3682L58.0908 16.2061Z"/>
</mask>
<path d="M49.082 17.0068H48.9609V23.4131C49.0143 25.6021 49.041 27.5246 49.041 29.1797L48.0801 29.8203H33.0244C29.8744 29.8203 27.4181 30.3274 25.6562 31.3418C23.8945 32.3561 23.0138 33.9577 23.0137 36.1465C23.0137 37.2143 23.2805 38.2828 23.8145 39.3506C24.3483 40.3649 24.9622 41.2191 25.6562 41.9131C27.3646 40.3649 29.3399 39.1371 31.582 38.2295C33.8778 37.3219 36.2807 36.8682 38.79 36.8682C41.2994 36.8682 43.4087 37.2952 45.1172 38.1494C46.8789 38.9502 48.2669 39.9912 49.2812 41.2725C50.349 42.5537 51.123 43.8884 51.6035 45.2764C52.084 46.6645 52.3242 47.9198 52.3242 49.041C52.3241 53.4722 49.5218 56.8628 43.916 59.2119L40.1514 53.8457C41.9133 52.9915 43.4354 51.9506 44.7168 50.7227C46.0515 49.4413 46.7188 47.8657 46.7188 45.9971C46.7187 44.449 46.1848 43.3278 45.1172 42.6338C44.0494 41.8863 42.5806 41.5127 40.7119 41.5127C38.2028 41.5127 35.9339 42.1267 33.9053 43.3545C31.9298 44.5291 30.3543 46.0779 29.1797 48C28.0587 49.8685 27.4981 51.8438 27.498 53.9258C27.498 55.7944 28.1119 57.7436 29.3398 59.7725C30.5678 61.7479 32.7039 63.6428 35.7471 65.458C38.8437 67.2733 43.088 68.9022 48.4805 70.3438L47.5996 73.7871C41.1928 72.1854 36.0401 70.2372 32.1426 67.9414C28.2453 65.6457 25.3895 63.1626 23.5742 60.4932C21.8123 57.8236 20.9307 55.1272 20.9307 52.4043C20.9307 49.6814 21.7056 47.1451 23.2539 44.7959C21.5988 43.4078 20.1567 41.6997 18.9287 39.6709C17.7541 37.5887 17.167 35.4794 17.167 33.3438C17.167 30.5143 18.3149 28.2188 20.6104 26.457C22.9595 24.6952 26.6169 23.8135 31.582 23.8135H42.3936V17.0068H13.7236L11 11.8008V11H43.0752L49.082 17.0068ZM58.0908 16.2061V17.0068H49.873L43.8662 11H55.3682L58.0908 16.2061Z" fill="#F6E34E"/>
<path d="M49.082 17.0068V18.0068H51.4962L49.7891 16.2997L49.082 17.0068ZM48.9609 17.0068V16.0068H47.9609V17.0068H48.9609ZM48.9609 23.4131H47.9609V23.4253L47.9612 23.4375L48.9609 23.4131ZM49.041 29.1797L49.5957 30.0117L50.041 29.7149V29.1797H49.041ZM48.0801 29.8203V30.8203H48.3829L48.6348 30.6524L48.0801 29.8203ZM25.6562 31.3418L25.1573 30.4752L25.1573 30.4752L25.6562 31.3418ZM23.0137 36.1465L22.0137 36.1464V36.1465H23.0137ZM23.8145 39.3506L22.92 39.7978L22.9247 39.8071L22.9295 39.8164L23.8145 39.3506ZM25.6562 41.9131L24.9491 42.6202L25.6223 43.2934L26.3278 42.6541L25.6562 41.9131ZM31.582 38.2295L31.2144 37.2995L31.2068 37.3026L31.582 38.2295ZM38.79 36.8682V35.8682H38.79L38.79 36.8682ZM45.1172 38.1494L44.67 39.0438L44.6865 39.0521L44.7034 39.0598L45.1172 38.1494ZM49.2812 41.2725L48.4972 41.8932L48.505 41.903L48.513 41.9126L49.2812 41.2725ZM51.6035 45.2764L52.5485 44.9493L52.5485 44.9492L51.6035 45.2764ZM52.3242 49.041L53.3242 49.041V49.041H52.3242ZM43.916 59.2119L43.0974 59.7862L43.5598 60.4454L44.3025 60.1342L43.916 59.2119ZM40.1514 53.8457L39.7151 52.9459L38.6581 53.4584L39.3327 54.42L40.1514 53.8457ZM44.7168 50.7227L45.4087 51.4446L45.4093 51.444L44.7168 50.7227ZM46.7188 45.9971H47.7188V45.997L46.7188 45.9971ZM45.1172 42.6338L44.5437 43.453L44.5578 43.4629L44.5722 43.4722L45.1172 42.6338ZM40.7119 41.5127V40.5127H40.7119L40.7119 41.5127ZM33.9053 43.3545L34.4164 44.2141L34.423 44.21L33.9053 43.3545ZM29.1797 48L28.3264 47.4785L28.3222 47.4855L29.1797 48ZM27.498 53.9258L26.498 53.9258V53.9258H27.498ZM29.3398 59.7725L28.4843 60.2903L28.4906 60.3004L29.3398 59.7725ZM35.7471 65.458L35.2348 66.3169L35.2414 66.3207L35.7471 65.458ZM48.4805 70.3438L49.4493 70.5916L49.6944 69.6332L48.7387 69.3777L48.4805 70.3438ZM47.5996 73.7871L47.3571 74.7573L48.3219 74.9985L48.5684 74.0349L47.5996 73.7871ZM32.1426 67.9414L31.635 68.803H31.635L32.1426 67.9414ZM23.5742 60.4932L22.7395 61.0441L22.7473 61.0555L23.5742 60.4932ZM20.9307 52.4043L19.9307 52.4043V52.4043H20.9307ZM23.2539 44.7959L24.0889 45.3462L24.5792 44.6023L23.8965 44.0297L23.2539 44.7959ZM18.9287 39.6709L18.0577 40.1622L18.0653 40.1756L18.0732 40.1887L18.9287 39.6709ZM17.167 33.3438L16.167 33.3437V33.3438H17.167ZM20.6104 26.457L20.0103 25.657L20.0015 25.6638L20.6104 26.457ZM31.582 23.8135V22.8135H31.582L31.582 23.8135ZM42.3936 23.8135V24.8135H43.3936V23.8135H42.3936ZM42.3936 17.0068H43.3936V16.0068H42.3936V17.0068ZM13.7236 17.0068L12.8376 17.4704L13.1182 18.0068H13.7236V17.0068ZM11 11.8008H10V12.0466L10.1139 12.2643L11 11.8008ZM11 11V10H10V11H11ZM43.0752 11L43.7823 10.2929L43.4894 10H43.0752V11ZM58.0908 16.2061H59.0908V15.9604L58.977 15.7426L58.0908 16.2061ZM58.0908 17.0068V18.0068H59.0908V17.0068H58.0908ZM49.873 17.0068L49.1659 17.7139L49.4588 18.0068H49.873V17.0068ZM43.8662 11V10H41.452L43.1591 11.7071L43.8662 11ZM55.3682 11L56.2543 10.5366L55.9737 10H55.3682V11ZM49.082 17.0068V16.0068H48.9609V17.0068V18.0068H49.082V17.0068ZM48.9609 17.0068H47.9609V23.4131H48.9609H49.9609V17.0068H48.9609ZM48.9609 23.4131L47.9612 23.4375C48.0145 25.6208 48.041 27.5348 48.041 29.1797H49.041H50.041C50.041 27.5144 50.0142 25.5834 49.9606 23.3887L48.9609 23.4131ZM49.041 29.1797L48.4863 28.3476L47.5254 28.9883L48.0801 29.8203L48.6348 30.6524L49.5957 30.0117L49.041 29.1797ZM48.0801 29.8203V28.8203H33.0244V29.8203V30.8203H48.0801V29.8203ZM33.0244 29.8203V28.8203C29.7873 28.8203 27.1324 29.3381 25.1573 30.4752L25.6562 31.3418L26.1552 32.2084C27.7039 31.3168 29.9616 30.8203 33.0244 30.8203V29.8203ZM25.6562 31.3418L25.1573 30.4752C23.0575 31.6841 22.0138 33.6335 22.0137 36.1464L23.0137 36.1465L24.0137 36.1465C24.0138 34.2819 24.7314 33.0282 26.1552 32.2084L25.6562 31.3418ZM23.0137 36.1465H22.0137C22.0137 37.3869 22.3249 38.6076 22.92 39.7978L23.8145 39.3506L24.7089 38.9034C24.2362 37.958 24.0137 37.0417 24.0137 36.1465H23.0137ZM23.8145 39.3506L22.9295 39.8164C23.5025 40.905 24.1733 41.8444 24.9491 42.6202L25.6562 41.9131L26.3634 41.206C25.7512 40.5938 25.1941 39.8248 24.6994 38.8848L23.8145 39.3506ZM25.6562 41.9131L26.3278 42.6541C27.9448 41.1887 29.8186 40.0221 31.9572 39.1564L31.582 38.2295L31.2068 37.3026C28.8612 38.252 26.7844 39.5412 24.9847 41.1721L25.6562 41.9131ZM31.582 38.2295L31.9497 39.1595C34.1264 38.2989 36.4044 37.8682 38.79 37.8682L38.79 36.8682L38.79 35.8682C36.157 35.8682 33.6292 36.3448 31.2144 37.2995L31.582 38.2295ZM38.79 36.8682V37.8682C41.191 37.8682 43.1369 38.2773 44.67 39.0438L45.1172 38.1494L45.5644 37.255C43.6805 36.313 41.4078 35.8682 38.79 35.8682V36.8682ZM45.1172 38.1494L44.7034 39.0598C46.347 39.8069 47.5981 40.7575 48.4972 41.8932L49.2812 41.2725L50.0653 40.6518C48.9357 39.2249 47.4108 38.0936 45.531 37.2391L45.1172 38.1494ZM49.2812 41.2725L48.513 41.9126C49.5137 43.1135 50.2225 44.344 50.6585 45.6035L51.6035 45.2764L52.5485 44.9492C52.0235 43.4327 51.1842 41.9939 50.0495 40.6323L49.2812 41.2725ZM51.6035 45.2764L50.6585 45.6035C51.1132 46.9171 51.3242 48.0595 51.3242 49.041H52.3242H53.3242C53.3242 47.7801 53.0548 46.4119 52.5485 44.9493L51.6035 45.2764ZM52.3242 49.041L51.3242 49.041C51.3242 51.0259 50.7034 52.7556 49.4515 54.2701C48.185 55.8021 46.2371 57.155 43.5295 58.2896L43.916 59.2119L44.3025 60.1342C47.2007 58.9197 49.4568 57.4027 50.993 55.5444C52.5437 53.6685 53.3242 51.4873 53.3242 49.041L52.3242 49.041ZM43.916 59.2119L44.7347 58.6376L40.97 53.2714L40.1514 53.8457L39.3327 54.42L43.0974 59.7862L43.916 59.2119ZM40.1514 53.8457L40.5876 54.7455C42.4337 53.8505 44.0444 52.7521 45.4087 51.4446L44.7168 50.7227L44.0249 50.0007C42.8264 51.1492 41.3928 52.1324 39.7151 52.9459L40.1514 53.8457ZM44.7168 50.7227L45.4093 51.444C46.9428 49.9719 47.7188 48.1348 47.7188 45.9971H46.7188H45.7188C45.7188 47.5966 45.1602 48.9107 44.0243 50.0013L44.7168 50.7227ZM46.7188 45.9971L47.7188 45.997C47.7186 44.1945 47.0775 42.7154 45.6622 41.7954L45.1172 42.6338L44.5722 43.4722C45.2922 43.9403 45.7187 44.7036 45.7188 45.9971L46.7188 45.9971ZM45.1172 42.6338L45.6907 41.8146C44.3962 40.9084 42.7002 40.5127 40.7119 40.5127V41.5127V42.5127C42.4609 42.5127 43.7026 42.8642 44.5437 43.453L45.1172 42.6338ZM40.7119 41.5127L40.7119 40.5127C38.0313 40.5127 35.5815 41.1711 33.3875 42.499L33.9053 43.3545L34.423 44.21C36.2864 43.0823 38.3743 42.5127 40.7119 42.5127L40.7119 41.5127ZM33.9053 43.3545L33.3942 42.495C31.2818 43.751 29.5876 45.4147 28.3264 47.4785L29.1797 48L30.033 48.5215C31.1209 46.7412 32.5778 45.3072 34.4163 44.214L33.9053 43.3545ZM29.1797 48L28.3222 47.4855C27.1125 49.5019 26.4981 51.6539 26.498 53.9258L27.498 53.9258L28.498 53.9258C28.4981 52.0336 29.0049 50.2351 30.0372 48.5145L29.1797 48ZM27.498 53.9258H26.498C26.498 56.02 27.1869 58.1466 28.4843 60.2903L29.3398 59.7725L30.1953 59.2547C29.0368 57.3406 28.498 55.5689 28.498 53.9258H27.498ZM29.3398 59.7725L28.4906 60.3004C29.8356 62.4641 32.1201 64.4589 35.2348 66.3168L35.7471 65.458L36.2593 64.5992C33.2876 62.8266 31.3001 61.0316 30.1891 59.2445L29.3398 59.7725ZM35.7471 65.458L35.2414 66.3207C38.4458 68.1992 42.7853 69.8564 48.2222 71.3098L48.4805 70.3438L48.7387 69.3777C43.3908 67.948 39.2416 66.3474 36.2528 64.5953L35.7471 65.458ZM48.4805 70.3438L47.5117 70.0959L46.6308 73.5393L47.5996 73.7871L48.5684 74.0349L49.4493 70.5916L48.4805 70.3438ZM47.5996 73.7871L47.8421 72.817C41.4896 71.2288 36.4364 69.3101 32.6501 67.0798L32.1426 67.9414L31.635 68.803C35.6437 71.1643 40.8959 73.142 47.3571 74.7573L47.5996 73.7871ZM32.1426 67.9414L32.6501 67.0798C28.8324 64.831 26.107 62.4394 24.4011 59.9308L23.5742 60.4932L22.7473 61.0555C24.6719 63.8857 27.6581 66.4604 31.635 68.803L32.1426 67.9414ZM23.5742 60.4932L24.4088 59.9423C22.7355 57.407 21.9307 54.899 21.9307 52.4043H20.9307H19.9307C19.9307 55.3554 20.8892 58.2403 22.7396 61.044L23.5742 60.4932ZM20.9307 52.4043L21.9307 52.4043C21.9307 49.884 22.6443 47.5379 24.0889 45.3462L23.2539 44.7959L22.4189 44.2456C20.7669 46.7522 19.9307 49.4788 19.9307 52.4043L20.9307 52.4043ZM23.2539 44.7959L23.8965 44.0297C22.3332 42.7185 20.9608 41.0969 19.7842 39.1531L18.9287 39.6709L18.0732 40.1887C19.3526 42.3025 20.8644 44.097 22.6113 45.5621L23.2539 44.7959ZM18.9287 39.6709L19.7997 39.1796C18.6994 37.2291 18.167 35.2875 18.167 33.3438H17.167H16.167C16.167 35.6713 16.8088 37.9482 18.0577 40.1622L18.9287 39.6709ZM17.167 33.3438L18.167 33.3438C18.167 30.8334 19.1637 28.8279 21.2192 27.2503L20.6104 26.457L20.0015 25.6638C17.4661 27.6098 16.167 30.1952 16.167 33.3437L17.167 33.3438ZM20.6104 26.457L21.2104 27.257C23.3029 25.6877 26.6982 24.8135 31.582 24.8135L31.582 23.8135L31.582 22.8135C26.5356 22.8135 22.6161 23.7027 20.0104 25.657L20.6104 26.457ZM31.582 23.8135V24.8135H42.3936V23.8135V22.8135H31.582V23.8135ZM42.3936 23.8135H43.3936V17.0068H42.3936H41.3936V23.8135H42.3936ZM42.3936 17.0068V16.0068H13.7236V17.0068V18.0068H42.3936V17.0068ZM13.7236 17.0068L14.6097 16.5433L11.8861 11.3372L11 11.8008L10.1139 12.2643L12.8376 17.4704L13.7236 17.0068ZM11 11.8008H12V11H11H10V11.8008H11ZM11 11V12H43.0752V11V10H11V11ZM43.0752 11L42.3681 11.7071L48.3749 17.7139L49.082 17.0068L49.7891 16.2997L43.7823 10.2929L43.0752 11ZM58.0908 16.2061H57.0908V17.0068H58.0908H59.0908V16.2061H58.0908ZM58.0908 17.0068V16.0068H49.873V17.0068V18.0068H58.0908V17.0068ZM49.873 17.0068L50.5802 16.2997L44.5733 10.2929L43.8662 11L43.1591 11.7071L49.1659 17.7139L49.873 17.0068ZM43.8662 11V12H55.3682V11V10H43.8662V11ZM55.3682 11L54.482 11.4634L57.2047 16.6695L58.0908 16.2061L58.977 15.7426L56.2543 10.5366L55.3682 11Z" fill="#401E09" mask="url(#path-1-outside-1_1_488)"/>
</g>
<defs>
<filter id="filter0_d_1_488" x="0" y="0" width="69.0908" height="84.9984" filterUnits="userSpaceOnUse" color-interpolation-filters="sRGB">
<feFlood flood-opacity="0" result="BackgroundImageFix"/>
<feColorMatrix in="SourceAlpha" type="matrix" values="0 0 0 0 0 0 0 0 0 0 0 0 0 0 0 0 0 0 127 0" result="hardAlpha"/>
<feOffset/>
<feGaussianBlur stdDeviation="5"/>
<feComposite in2="hardAlpha" operator="out"/>
<feColorMatrix type="matrix" values="0 0 0 0 0 0 0 0 0 0 0 0 0 0 0 0 0 0 0.7 0"/>
<feBlend mode="normal" in2="BackgroundImageFix" result="effect1_dropShadow_1_488"/>
<feBlend mode="normal" in="SourceGraphic" in2="effect1_dropShadow_1_488" result="shape"/>
</filter>
</defs>
</svg>
