<svg width="70" height="62" viewBox="0 0 70 62" fill="none" xmlns="http://www.w3.org/2000/svg">
<g filter="url(#filter0_d_1_485)">
<mask id="path-1-outside-1_1_485" maskUnits="userSpaceOnUse" x="10" y="10" width="50" height="42" fill="black">
<rect fill="white" x="10" y="10" width="50" height="42"/>
<path d="M50.666 16.3594L50.791 50.9814H50.1562L45.0791 47.6816L45.2061 26.9922C44.9101 26.9076 44.5931 26.8228 44.2549 26.7383C43.9588 26.6537 43.6411 26.6113 43.3027 26.6113C41.6527 26.6113 40.1296 27.3522 38.7334 28.833C37.3796 30.2715 35.9199 32.6828 34.3545 36.0674L29.4678 33.6562C29.7639 32.8947 30.1238 32.0903 30.5469 31.2441C30.9699 30.3982 31.4348 29.5732 31.9424 28.7695C31.2655 28.0926 30.4831 27.5422 29.5947 27.1191C28.7486 26.6961 27.8383 26.4844 26.8652 26.4844C25.1731 26.4845 23.7555 27.0984 22.6133 28.3252C21.5134 29.5521 20.9639 31.2871 20.9639 33.5293C20.9639 35.0523 21.2814 36.5544 21.916 38.0352C22.593 39.4735 23.7564 41.0392 25.4062 42.7314C27.0562 44.4237 29.3408 46.433 32.2598 48.7598L29.5312 50.9814H28.8965C26.2734 48.4429 23.9892 46.1154 22.043 44C20.0969 41.8847 18.5736 39.812 17.4736 37.7812C16.4159 35.7504 15.8867 33.6134 15.8867 31.3711C15.8868 29.5942 16.2254 27.9863 16.9023 26.5479C17.6216 25.1096 18.6368 23.9672 19.9482 23.1211C21.2598 22.2326 22.8253 21.7881 24.6445 21.7881C26.5907 21.7881 28.2409 22.2961 29.5947 23.3115C30.9908 24.3269 32.2389 25.4691 33.3389 26.7383C34.3119 25.5538 35.4119 24.5597 36.6387 23.7559C37.8655 22.9098 39.1984 22.4864 40.6367 22.4863C42.1598 22.4863 43.7042 23.0156 45.2695 24.0732L45.333 15.7598H13.1582L11 11.6348V11H45.3066L50.666 16.3594ZM58.0889 15.125V15.7598H50.6934L45.9336 11H55.9316L58.0889 15.125Z"/>
</mask>
<path d="M50.666 16.3594L50.791 50.9814H50.1562L45.0791 47.6816L45.2061 26.9922C44.9101 26.9076 44.5931 26.8228 44.2549 26.7383C43.9588 26.6537 43.6411 26.6113 43.3027 26.6113C41.6527 26.6113 40.1296 27.3522 38.7334 28.833C37.3796 30.2715 35.9199 32.6828 34.3545 36.0674L29.4678 33.6562C29.7639 32.8947 30.1238 32.0903 30.5469 31.2441C30.9699 30.3982 31.4348 29.5732 31.9424 28.7695C31.2655 28.0926 30.4831 27.5422 29.5947 27.1191C28.7486 26.6961 27.8383 26.4844 26.8652 26.4844C25.1731 26.4845 23.7555 27.0984 22.6133 28.3252C21.5134 29.5521 20.9639 31.2871 20.9639 33.5293C20.9639 35.0523 21.2814 36.5544 21.916 38.0352C22.593 39.4735 23.7564 41.0392 25.4062 42.7314C27.0562 44.4237 29.3408 46.433 32.2598 48.7598L29.5312 50.9814H28.8965C26.2734 48.4429 23.9892 46.1154 22.043 44C20.0969 41.8847 18.5736 39.812 17.4736 37.7812C16.4159 35.7504 15.8867 33.6134 15.8867 31.3711C15.8868 29.5942 16.2254 27.9863 16.9023 26.5479C17.6216 25.1096 18.6368 23.9672 19.9482 23.1211C21.2598 22.2326 22.8253 21.7881 24.6445 21.7881C26.5907 21.7881 28.2409 22.2961 29.5947 23.3115C30.9908 24.3269 32.2389 25.4691 33.3389 26.7383C34.3119 25.5538 35.4119 24.5597 36.6387 23.7559C37.8655 22.9098 39.1984 22.4864 40.6367 22.4863C42.1598 22.4863 43.7042 23.0156 45.2695 24.0732L45.333 15.7598H13.1582L11 11.6348V11H45.3066L50.666 16.3594ZM58.0889 15.125V15.7598H50.6934L45.9336 11H55.9316L58.0889 15.125Z" fill="#F6E34E"/>
<path d="M50.666 16.3594L51.666 16.3558L51.6645 15.9437L51.3731 15.6523L50.666 16.3594ZM50.791 50.9814V51.9814H51.7946L51.791 50.9778L50.791 50.9814ZM50.1562 50.9814L49.6113 51.8199L49.8598 51.9814H50.1562V50.9814ZM45.0791 47.6816L44.0791 47.6755L44.0758 48.2222L44.5342 48.5201L45.0791 47.6816ZM45.2061 26.9922L46.206 26.9983L46.2107 26.2392L45.4808 26.0307L45.2061 26.9922ZM44.2549 26.7383L43.9802 27.6998L43.9962 27.7044L44.0123 27.7084L44.2549 26.7383ZM43.3027 26.6113L43.3028 25.6113H43.3027V26.6113ZM38.7334 28.833L38.0058 28.147L38.0052 28.1476L38.7334 28.833ZM34.3545 36.0674L33.912 36.9642L34.8316 37.4179L35.2621 36.4872L34.3545 36.0674ZM29.4678 33.6562L28.5358 33.2938L28.2037 34.1477L29.0253 34.553L29.4678 33.6562ZM30.5469 31.2441L29.6525 30.7969L29.6524 30.7969L30.5469 31.2441ZM31.9424 28.7695L32.7879 29.3035L33.2147 28.6276L32.6495 28.0624L31.9424 28.7695ZM29.5947 27.1191L29.1475 28.0136L29.1561 28.0179L29.1648 28.022L29.5947 27.1191ZM26.8652 26.4844V25.4844H26.8652L26.8652 26.4844ZM22.6133 28.3252L21.8814 27.6438L21.875 27.6507L21.8687 27.6577L22.6133 28.3252ZM20.9639 33.5293H19.9639V33.5293L20.9639 33.5293ZM21.916 38.0352L20.9969 38.4291L21.0038 38.4452L21.0112 38.461L21.916 38.0352ZM25.4062 42.7314L24.6902 43.4295L24.6903 43.4296L25.4062 42.7314ZM32.2598 48.7598L32.8912 49.5352L33.8537 48.7515L32.8831 47.9778L32.2598 48.7598ZM29.5312 50.9814V51.9814H29.8869L30.1627 51.7569L29.5312 50.9814ZM28.8965 50.9814L28.2011 51.7L28.4918 51.9814H28.8965V50.9814ZM22.043 44L22.7789 43.3229V43.3229L22.043 44ZM17.4736 37.7812L16.5867 38.2432L16.5905 38.2504L16.5943 38.2575L17.4736 37.7812ZM15.8867 31.3711L14.8867 31.3711V31.3711H15.8867ZM16.9023 26.5479L16.0079 26.1006L16.0026 26.1113L15.9975 26.1221L16.9023 26.5479ZM19.9482 23.1211L20.4904 23.9614L20.4998 23.9553L20.5091 23.949L19.9482 23.1211ZM24.6445 21.7881L24.6445 20.7881H24.6445V21.7881ZM29.5947 23.3115L28.9947 24.1115L29.0006 24.1159L29.0066 24.1203L29.5947 23.3115ZM33.3389 26.7383L32.5832 27.3932L33.3593 28.2888L34.1116 27.373L33.3389 26.7383ZM36.6387 23.7559L37.1867 24.5923L37.1966 24.5858L37.2064 24.5791L36.6387 23.7559ZM40.6367 22.4863V21.4863H40.6367L40.6367 22.4863ZM45.2695 24.0732L44.7097 24.9018L46.2553 25.9461L46.2695 24.0809L45.2695 24.0732ZM45.333 15.7598L46.333 15.7674L46.3407 14.7598H45.333V15.7598ZM13.1582 15.7598L12.2722 16.2233L12.5528 16.7598H13.1582V15.7598ZM11 11.6348H10V11.8806L10.1139 12.0983L11 11.6348ZM11 11V10H10V11H11ZM45.3066 11L46.0137 10.2929L45.7209 10H45.3066V11ZM58.0889 15.125H59.0889V14.8793L58.975 14.6616L58.0889 15.125ZM58.0889 15.7598V16.7598H59.0889V15.7598H58.0889ZM50.6934 15.7598L49.9863 16.4669L50.2791 16.7598H50.6934V15.7598ZM45.9336 11V10H43.5194L45.2265 11.7071L45.9336 11ZM55.9316 11L56.8178 10.5366L56.5372 10H55.9316V11ZM50.666 16.3594L49.666 16.363L49.791 50.9851L50.791 50.9814L51.791 50.9778L51.666 16.3558L50.666 16.3594ZM50.791 50.9814V49.9814H50.1562V50.9814V51.9814H50.791V50.9814ZM50.1562 50.9814L50.7012 50.143L45.6241 46.8432L45.0791 47.6816L44.5342 48.5201L49.6113 51.8199L50.1562 50.9814ZM45.0791 47.6816L46.0791 47.6878L46.206 26.9983L45.2061 26.9922L44.2061 26.9861L44.0791 47.6755L45.0791 47.6816ZM45.2061 26.9922L45.4808 26.0307C45.1733 25.9428 44.8455 25.8552 44.4974 25.7681L44.2549 26.7383L44.0123 27.7084C44.3406 27.7905 44.6469 27.8724 44.9314 27.9537L45.2061 26.9922ZM44.2549 26.7383L44.5296 25.7768C44.1358 25.6642 43.7249 25.6114 43.3028 25.6113L43.3027 26.6113L43.3027 27.6113C43.5573 27.6113 43.7818 27.6431 43.9802 27.6998L44.2549 26.7383ZM43.3027 26.6113V25.6113C41.3151 25.6113 39.5435 26.5161 38.0058 28.147L38.7334 28.833L39.461 29.519C40.7156 28.1884 41.9903 27.6113 43.3027 27.6113V26.6113ZM38.7334 28.833L38.0052 28.1476C36.5386 29.7059 35.0248 32.2359 33.4469 35.6476L34.3545 36.0674L35.2621 36.4872C36.8149 33.1298 38.2205 30.837 39.4616 29.5184L38.7334 28.833ZM34.3545 36.0674L34.797 35.1706L29.9102 32.7595L29.4678 33.6562L29.0253 34.553L33.912 36.9642L34.3545 36.0674ZM29.4678 33.6562L30.3998 34.0187C30.6831 33.29 31.0299 32.5141 31.4413 31.6914L30.5469 31.2441L29.6524 30.7969C29.2176 31.6666 28.8447 32.4994 28.5358 33.2938L29.4678 33.6562ZM30.5469 31.2441L31.4413 31.6914C31.8495 30.875 32.2981 30.079 32.7879 29.3035L31.9424 28.7695L31.0969 28.2355C30.5715 29.0674 30.0903 29.9213 29.6525 30.7969L30.5469 31.2441ZM31.9424 28.7695L32.6495 28.0624C31.89 27.303 31.0134 26.6871 30.0247 26.2163L29.5947 27.1191L29.1648 28.022C29.9529 28.3973 30.6409 28.8823 31.2353 29.4766L31.9424 28.7695ZM29.5947 27.1191L30.0419 26.2247C29.0529 25.7302 27.989 25.4844 26.8652 25.4844V26.4844V27.4844C27.6877 27.4844 28.4442 27.6619 29.1475 28.0136L29.5947 27.1191ZM26.8652 26.4844L26.8652 25.4844C24.8983 25.4845 23.2147 26.2117 21.8814 27.6438L22.6133 28.3252L23.3452 29.0066C24.2963 27.9851 25.4479 27.4845 26.8653 27.4844L26.8652 26.4844ZM22.6133 28.3252L21.8687 27.6577C20.5528 29.1255 19.9639 31.1306 19.9639 33.5293H20.9639H21.9639C21.9639 31.4435 22.4739 29.9787 23.3579 28.9927L22.6133 28.3252ZM20.9639 33.5293L19.9639 33.5293C19.9639 35.1956 20.3121 36.8313 20.9969 38.4291L21.916 38.0352L22.8352 37.6412C22.2507 36.2776 21.9639 34.9091 21.9639 33.5293L20.9639 33.5293ZM21.916 38.0352L21.0112 38.461C21.7526 40.0362 22.9967 41.6926 24.6902 43.4295L25.4062 42.7314L26.1223 42.0333C24.516 40.3859 23.4334 38.9109 22.8208 37.6093L21.916 38.0352ZM25.4062 42.7314L24.6903 43.4296C26.381 45.1636 28.7012 47.2021 31.6365 49.5417L32.2598 48.7598L32.8831 47.9778C29.9803 45.664 27.7314 43.6837 26.1222 42.0333L25.4062 42.7314ZM32.2598 48.7598L31.6284 47.9843L28.8998 50.206L29.5312 50.9814L30.1627 51.7569L32.8912 49.5352L32.2598 48.7598ZM29.5312 50.9814V49.9814H28.8965V50.9814V51.9814H29.5312V50.9814ZM28.8965 50.9814L29.5919 50.2628C26.9793 47.7345 24.7091 45.421 22.7789 43.3229L22.043 44L21.307 44.6771C23.2692 46.8098 25.5674 49.1514 28.2011 51.7L28.8965 50.9814ZM22.043 44L22.7789 43.3229C20.8756 41.2542 19.4054 39.2479 18.3529 37.305L17.4736 37.7812L16.5943 38.2575C17.7419 40.376 19.3181 42.5152 21.307 44.6771L22.043 44ZM17.4736 37.7812L18.3605 37.3193C17.3755 35.428 16.8867 33.449 16.8867 31.3711H15.8867H14.8867C14.8867 33.7778 15.4564 36.0729 16.5867 38.2432L17.4736 37.7812ZM15.8867 31.3711L16.8867 31.3711C16.8868 29.7241 17.1999 28.264 17.8072 26.9736L16.9023 26.5479L15.9975 26.1221C15.2509 27.7085 14.8868 29.4644 14.8867 31.3711L15.8867 31.3711ZM16.9023 26.5479L17.7968 26.9951C18.4385 25.7118 19.3342 24.7073 20.4904 23.9614L19.9482 23.1211L19.4061 22.2808C17.9394 23.2271 16.8047 24.5073 16.0079 26.1006L16.9023 26.5479ZM19.9482 23.1211L20.5091 23.949C21.6316 23.1886 22.9948 22.7881 24.6445 22.7881V21.7881V20.7881C22.6558 20.7881 20.888 21.2766 19.3874 22.2932L19.9482 23.1211ZM24.6445 21.7881L24.6445 22.7881C26.408 22.7881 27.8391 23.2448 28.9947 24.1115L29.5947 23.3115L30.1947 22.5115C28.6426 21.3474 26.7734 20.7881 24.6445 20.7881L24.6445 21.7881ZM29.5947 23.3115L29.0066 24.1203C30.3429 25.0921 31.5344 26.1831 32.5832 27.3932L33.3389 26.7383L34.0945 26.0833C32.9434 24.7551 31.6388 23.5616 30.1829 22.5028L29.5947 23.3115ZM33.3389 26.7383L34.1116 27.373C35.0232 26.2632 36.0483 25.3382 37.1867 24.5923L36.6387 23.7559L36.0906 22.9194C34.7754 23.7811 33.6005 24.8443 32.5662 26.1035L33.3389 26.7383ZM36.6387 23.7559L37.2064 24.5791C38.2728 23.8436 39.4089 23.4864 40.6368 23.4863L40.6367 22.4863L40.6367 21.4863C38.9878 21.4864 37.4582 21.9759 36.0709 22.9326L36.6387 23.7559ZM40.6367 22.4863V23.4863C41.9168 23.4863 43.2696 23.9288 44.7097 24.9018L45.2695 24.0732L45.8294 23.2446C44.1388 22.1024 42.4028 21.4863 40.6367 21.4863V22.4863ZM45.2695 24.0732L46.2695 24.0809L46.333 15.7674L45.333 15.7598L44.333 15.7521L44.2696 24.0656L45.2695 24.0732ZM45.333 15.7598V14.7598H13.1582V15.7598V16.7598H45.333V15.7598ZM13.1582 15.7598L14.0443 15.2962L11.8861 11.1712L11 11.6348L10.1139 12.0983L12.2722 16.2233L13.1582 15.7598ZM11 11.6348H12V11H11H10V11.6348H11ZM11 11V12H45.3066V11V10H11V11ZM45.3066 11L44.5995 11.7071L49.9589 17.0665L50.666 16.3594L51.3731 15.6523L46.0137 10.2929L45.3066 11ZM58.0889 15.125H57.0889V15.7598H58.0889H59.0889V15.125H58.0889ZM58.0889 15.7598V14.7598H50.6934V15.7598V16.7598H58.0889V15.7598ZM50.6934 15.7598L51.4005 15.0527L46.6407 10.2929L45.9336 11L45.2265 11.7071L49.9863 16.4669L50.6934 15.7598ZM45.9336 11V12H55.9316V11V10H45.9336V11ZM55.9316 11L55.0455 11.4634L57.2027 15.5884L58.0889 15.125L58.975 14.6616L56.8178 10.5366L55.9316 11Z" fill="#401E09" mask="url(#path-1-outside-1_1_485)"/>
</g>
<defs>
<filter id="filter0_d_1_485" x="0" y="0" width="69.0889" height="61.9814" filterUnits="userSpaceOnUse" color-interpolation-filters="sRGB">
<feFlood flood-opacity="0" result="BackgroundImageFix"/>
<feColorMatrix in="SourceAlpha" type="matrix" values="0 0 0 0 0 0 0 0 0 0 0 0 0 0 0 0 0 0 127 0" result="hardAlpha"/>
<feOffset/>
<feGaussianBlur stdDeviation="5"/>
<feComposite in2="hardAlpha" operator="out"/>
<feColorMatrix type="matrix" values="0 0 0 0 0 0 0 0 0 0 0 0 0 0 0 0 0 0 0.7 0"/>
<feBlend mode="normal" in2="BackgroundImageFix" result="effect1_dropShadow_1_485"/>
<feBlend mode="normal" in="SourceGraphic" in2="effect1_dropShadow_1_485" result="shape"/>
</filter>
</defs>
</svg>
