<svg width="70" height="70" viewBox="0 0 70 70" fill="none" xmlns="http://www.w3.org/2000/svg">
<g filter="url(#filter0_d_1_479)">
<mask id="path-1-outside-1_1_479" maskUnits="userSpaceOnUse" x="10" y="10" width="50" height="50" fill="black">
<rect fill="white" x="10" y="10" width="50" height="50"/>
<path d="M49.2891 16.6855L49.4395 58.3906H48.6865L42.6689 54.4795L42.8193 35.5977H29.5801C29.5801 38.5063 29.4298 40.538 29.1289 41.6914C28.828 42.8447 28.1006 43.4209 26.9473 43.4209C25.8942 43.4209 24.766 43.0952 23.5625 42.4434C22.3589 41.7914 21.2299 40.9389 20.1768 39.8857C19.1739 38.8327 18.3462 37.6794 17.6943 36.4258C17.0424 35.172 16.7168 33.9679 16.7168 32.8145C16.7169 31.4105 17.2689 30.5577 18.3721 30.2568C19.5254 29.9059 21.0798 29.7305 23.0352 29.7305C23.9378 29.7305 25.4176 29.7555 27.4736 29.8057C29.5298 29.8057 31.887 29.8558 34.5449 29.9561C37.2529 30.0062 40.0111 30.0563 42.8193 30.1064L42.9697 16.6416H13.5576L11 11.752V11H43.6035L49.2891 16.6855ZM58.0898 15.8896V16.6416H49.9883L44.3477 11H55.5322L58.0898 15.8896Z"/>
</mask>
<path d="M49.2891 16.6855L49.4395 58.3906H48.6865L42.6689 54.4795L42.8193 35.5977H29.5801C29.5801 38.5063 29.4298 40.538 29.1289 41.6914C28.828 42.8447 28.1006 43.4209 26.9473 43.4209C25.8942 43.4209 24.766 43.0952 23.5625 42.4434C22.3589 41.7914 21.2299 40.9389 20.1768 39.8857C19.1739 38.8327 18.3462 37.6794 17.6943 36.4258C17.0424 35.172 16.7168 33.9679 16.7168 32.8145C16.7169 31.4105 17.2689 30.5577 18.3721 30.2568C19.5254 29.9059 21.0798 29.7305 23.0352 29.7305C23.9378 29.7305 25.4176 29.7555 27.4736 29.8057C29.5298 29.8057 31.887 29.8558 34.5449 29.9561C37.2529 30.0062 40.0111 30.0563 42.8193 30.1064L42.9697 16.6416H13.5576L11 11.752V11H43.6035L49.2891 16.6855ZM58.0898 15.8896V16.6416H49.9883L44.3477 11H55.5322L58.0898 15.8896Z" fill="#F6E34E"/>
<path d="M49.2891 16.6855L50.2891 16.6819L50.2876 16.2698L49.9962 15.9784L49.2891 16.6855ZM49.4395 58.3906V59.3906H50.4431L50.4394 58.387L49.4395 58.3906ZM48.6865 58.3906L48.1416 59.2291L48.3901 59.3906H48.6865V58.3906ZM42.6689 54.4795L41.669 54.4715L41.6646 55.0194L42.124 55.318L42.6689 54.4795ZM42.8193 35.5977L43.8193 35.6056L43.8273 34.5977H42.8193V35.5977ZM29.5801 35.5977V34.5977H28.5801V35.5977H29.5801ZM29.1289 41.6914L30.0965 41.9439L30.0965 41.9438L29.1289 41.6914ZM26.9473 43.4209L26.9473 44.4209H26.9473V43.4209ZM23.5625 42.4434L23.0862 43.3227L23.0862 43.3227L23.5625 42.4434ZM20.1768 39.8857L19.4526 40.5754L19.461 40.5842L19.4697 40.5928L20.1768 39.8857ZM17.6943 36.4258L16.8071 36.8871L16.8071 36.8871L17.6943 36.4258ZM16.7168 32.8145L15.7168 32.8144V32.8145H16.7168ZM18.3721 30.2568L18.6352 31.2216L18.6492 31.2178L18.6632 31.2135L18.3721 30.2568ZM23.0352 29.7305V28.7305H23.0351L23.0352 29.7305ZM27.4736 29.8057L27.4492 30.8054L27.4614 30.8057H27.4736V29.8057ZM34.5449 29.9561L34.5072 30.9553L34.5168 30.9557L34.5264 30.9559L34.5449 29.9561ZM42.8193 30.1064L42.8015 31.1063L43.808 31.1243L43.8193 30.1176L42.8193 30.1064ZM42.9697 16.6416L43.9697 16.6528L43.981 15.6416H42.9697V16.6416ZM13.5576 16.6416L12.6715 17.1051L12.9521 17.6416H13.5576V16.6416ZM11 11.752H10V11.9977L10.1139 12.2154L11 11.752ZM11 11V10H10V11H11ZM43.6035 11L44.3106 10.2929L44.0177 10H43.6035V11ZM58.0898 15.8896H59.0898V15.6439L58.9759 15.4262L58.0898 15.8896ZM58.0898 16.6416V17.6416H59.0898V16.6416H58.0898ZM49.9883 16.6416L49.2811 17.3486L49.574 17.6416H49.9883V16.6416ZM44.3477 11V10H41.9337L43.6405 11.707L44.3477 11ZM55.5322 11L56.4183 10.5365L56.1377 10H55.5322V11ZM49.2891 16.6855L48.2891 16.6892L48.4395 58.3942L49.4395 58.3906L50.4394 58.387L50.2891 16.6819L49.2891 16.6855ZM49.4395 58.3906V57.3906H48.6865V58.3906V59.3906H49.4395V58.3906ZM48.6865 58.3906L49.2315 57.5522L43.2139 53.641L42.6689 54.4795L42.124 55.318L48.1416 59.2291L48.6865 58.3906ZM42.6689 54.4795L43.6689 54.4875L43.8193 35.6056L42.8193 35.5977L41.8194 35.5897L41.669 54.4715L42.6689 54.4795ZM42.8193 35.5977V34.5977H29.5801V35.5977V36.5977H42.8193V35.5977ZM29.5801 35.5977H28.5801C28.5801 38.5084 28.4263 40.4232 28.1613 41.439L29.1289 41.6914L30.0965 41.9438C30.4333 40.6528 30.5801 38.5042 30.5801 35.5977H29.5801ZM29.1289 41.6914L28.1613 41.4389C28.05 41.8657 27.8872 42.0856 27.7366 42.205C27.5892 42.3218 27.3546 42.4209 26.9473 42.4209V43.4209V44.4209C27.6933 44.4209 28.399 44.2319 28.9789 43.7723C29.5555 43.3153 29.9069 42.6705 30.0965 41.9439L29.1289 41.6914ZM26.9473 43.4209L26.9473 42.4209C26.1028 42.4209 25.1384 42.1597 24.0388 41.5641L23.5625 42.4434L23.0862 43.3227C24.3936 44.0308 25.6855 44.4209 26.9473 44.4209L26.9473 43.4209ZM23.5625 42.4434L24.0388 41.5641C22.927 40.9619 21.8746 40.1694 20.8839 39.1786L20.1768 39.8857L19.4697 40.5928C20.5852 41.7084 21.7908 42.621 23.0862 43.3227L23.5625 42.4434ZM20.1768 39.8857L20.9009 39.1961C19.9609 38.209 19.1888 37.1322 18.5816 35.9644L17.6943 36.4258L16.8071 36.8871C17.5037 38.2267 18.3869 39.4564 19.4526 40.5754L20.1768 39.8857ZM17.6943 36.4258L18.5816 35.9644C17.9874 34.8218 17.7168 33.7753 17.7168 32.8145H16.7168H15.7168C15.7168 34.1605 16.0974 35.5223 16.8071 36.8871L17.6943 36.4258ZM16.7168 32.8145L17.7168 32.8145C17.7168 32.2342 17.832 31.879 17.9703 31.6653C18.0954 31.472 18.289 31.316 18.6352 31.2216L18.3721 30.2568L18.109 29.2921C17.352 29.4985 16.7179 29.9194 16.2913 30.5786C15.8777 31.2176 15.7168 31.9907 15.7168 32.8144L16.7168 32.8145ZM18.3721 30.2568L18.6632 31.2135C19.682 30.9035 21.1252 30.7305 23.0352 30.7305L23.0352 29.7305L23.0351 28.7305C21.0344 28.7305 19.3687 28.9083 18.081 29.3001L18.3721 30.2568ZM23.0352 29.7305V30.7305C23.9246 30.7305 25.3938 30.7552 27.4492 30.8054L27.4736 29.8057L27.498 28.806C25.4414 28.7558 23.951 28.7305 23.0352 28.7305V29.7305ZM27.4736 29.8057V30.8057C29.5142 30.8057 31.8585 30.8554 34.5072 30.9553L34.5449 29.9561L34.5826 28.9568C31.9156 28.8561 29.5453 28.8057 27.4736 28.8057V29.8057ZM34.5449 29.9561L34.5264 30.9559C37.2346 31.006 39.993 31.0561 42.8015 31.1063L42.8193 30.1064L42.8372 29.1066C40.0291 29.0565 37.2712 29.0064 34.5634 28.9562L34.5449 29.9561ZM42.8193 30.1064L43.8193 30.1176L43.9697 16.6528L42.9697 16.6416L41.9698 16.6304L41.8194 30.0953L42.8193 30.1064ZM42.9697 16.6416V15.6416H13.5576V16.6416V17.6416H42.9697V16.6416ZM13.5576 16.6416L14.4437 16.1781L11.8861 11.2885L11 11.752L10.1139 12.2154L12.6715 17.1051L13.5576 16.6416ZM11 11.752H12V11H11H10V11.752H11ZM11 11V12H43.6035V11V10H11V11ZM43.6035 11L42.8964 11.7071L48.582 17.3927L49.2891 16.6855L49.9962 15.9784L44.3106 10.2929L43.6035 11ZM58.0898 15.8896H57.0898V16.6416H58.0898H59.0898V15.8896H58.0898ZM58.0898 16.6416V15.6416H49.9883V16.6416V17.6416H58.0898V16.6416ZM49.9883 16.6416L50.6954 15.9346L45.0548 10.293L44.3477 11L43.6405 11.707L49.2811 17.3486L49.9883 16.6416ZM44.3477 11V12H55.5322V11V10H44.3477V11ZM55.5322 11L54.6461 11.4635L57.2037 16.3531L58.0898 15.8896L58.9759 15.4262L56.4183 10.5365L55.5322 11Z" fill="#401E09" mask="url(#path-1-outside-1_1_479)"/>
</g>
<defs>
<filter id="filter0_d_1_479" x="0" y="0" width="69.0898" height="69.3906" filterUnits="userSpaceOnUse" color-interpolation-filters="sRGB">
<feFlood flood-opacity="0" result="BackgroundImageFix"/>
<feColorMatrix in="SourceAlpha" type="matrix" values="0 0 0 0 0 0 0 0 0 0 0 0 0 0 0 0 0 0 127 0" result="hardAlpha"/>
<feOffset/>
<feGaussianBlur stdDeviation="5"/>
<feComposite in2="hardAlpha" operator="out"/>
<feColorMatrix type="matrix" values="0 0 0 0 0 0 0 0 0 0 0 0 0 0 0 0 0 0 0.7 0"/>
<feBlend mode="normal" in2="BackgroundImageFix" result="effect1_dropShadow_1_479"/>
<feBlend mode="normal" in="SourceGraphic" in2="effect1_dropShadow_1_479" result="shape"/>
</filter>
</defs>
</svg>
