<svg width="70" height="71" viewBox="0 0 70 71" fill="none" xmlns="http://www.w3.org/2000/svg">
<g filter="url(#filter0_d_1_482)">
<mask id="path-1-outside-1_1_482" maskUnits="userSpaceOnUse" x="10" y="10" width="50" height="51" fill="black">
<rect fill="white" x="10" y="10" width="50" height="51"/>
<path d="M49.1055 16.8027L49.2588 59.4004H48.4912L42.3447 55.4053L42.4219 43.2676C39.7074 44.9065 37.0696 45.7255 34.5088 45.7256C32.5114 45.7256 30.5908 45.2646 28.7471 44.3428C26.9033 43.4209 25.2382 42.2427 23.7529 40.8086C22.2677 39.3746 21.0894 37.864 20.2188 36.2764C19.3481 34.6886 18.8872 33.2541 18.8359 31.9736C18.7847 31.2568 18.7598 30.5911 18.7598 29.9766V22.7549C18.811 20.7576 18.8359 18.76 18.8359 16.7627H13.6123L11 11.7686V11H43.3027L49.1055 16.8027ZM25.5195 33.6641C25.5196 36.1224 26.0832 37.9152 27.21 39.042C28.3367 40.1687 29.5409 40.7314 30.8213 40.7314C32.3577 40.7314 34.0738 40.2455 35.9688 39.2725C37.9148 38.2994 40.0911 36.9673 42.498 35.2773L42.6523 16.7627H25.3662L25.5195 33.6641ZM58.0938 15.9941V16.7627H49.8242L44.0625 11H55.4824L58.0938 15.9941Z"/>
</mask>
<path d="M49.1055 16.8027L49.2588 59.4004H48.4912L42.3447 55.4053L42.4219 43.2676C39.7074 44.9065 37.0696 45.7255 34.5088 45.7256C32.5114 45.7256 30.5908 45.2646 28.7471 44.3428C26.9033 43.4209 25.2382 42.2427 23.7529 40.8086C22.2677 39.3746 21.0894 37.864 20.2188 36.2764C19.3481 34.6886 18.8872 33.2541 18.8359 31.9736C18.7847 31.2568 18.7598 30.5911 18.7598 29.9766V22.7549C18.811 20.7576 18.8359 18.76 18.8359 16.7627H13.6123L11 11.7686V11H43.3027L49.1055 16.8027ZM25.5195 33.6641C25.5196 36.1224 26.0832 37.9152 27.21 39.042C28.3367 40.1687 29.5409 40.7314 30.8213 40.7314C32.3577 40.7314 34.0738 40.2455 35.9688 39.2725C37.9148 38.2994 40.0911 36.9673 42.498 35.2773L42.6523 16.7627H25.3662L25.5195 33.6641ZM58.0938 15.9941V16.7627H49.8242L44.0625 11H55.4824L58.0938 15.9941Z" fill="#F6E34E"/>
<path d="M49.1055 16.8027L50.1055 16.7991L50.104 16.387L49.8126 16.0956L49.1055 16.8027ZM49.2588 59.4004V60.4004H50.2624L50.2588 59.3968L49.2588 59.4004ZM48.4912 59.4004L47.9462 60.2388L48.1948 60.4004H48.4912V59.4004ZM42.3447 55.4053L41.3447 55.3989L41.3413 55.9457L41.7997 56.2437L42.3447 55.4053ZM42.4219 43.2676L43.4219 43.2739L43.4332 41.4888L41.905 42.4115L42.4219 43.2676ZM34.5088 45.7256V46.7256H34.5088L34.5088 45.7256ZM28.7471 44.3428L28.2999 45.2372L28.2999 45.2372L28.7471 44.3428ZM23.7529 40.8086L23.0583 41.528L23.0583 41.528L23.7529 40.8086ZM20.2188 36.2764L19.3419 36.7572L19.3419 36.7572L20.2188 36.2764ZM18.8359 31.9736L19.8351 31.9337L19.8345 31.918L19.8334 31.9024L18.8359 31.9736ZM18.7598 29.9766H17.7598V29.9766L18.7598 29.9766ZM18.7598 22.7549L17.7601 22.7292L17.7598 22.7421V22.7549H18.7598ZM18.8359 16.7627L19.8359 16.7627L19.8359 15.7627H18.8359V16.7627ZM13.6123 16.7627L12.7262 17.2262L13.0068 17.7627H13.6123V16.7627ZM11 11.7686H10V12.0143L10.1139 12.2321L11 11.7686ZM11 11V10H10V11H11ZM43.3027 11L44.0098 10.2929L43.7169 10H43.3027V11ZM25.5195 33.6641L26.5196 33.6641L26.5195 33.655L25.5195 33.6641ZM27.21 39.042L26.5029 39.7491L26.5029 39.7491L27.21 39.042ZM30.8213 40.7314V41.7314H30.8213L30.8213 40.7314ZM35.9688 39.2725L35.5215 38.378L35.5119 38.3829L35.9688 39.2725ZM42.498 35.2773L43.0727 36.0958L43.4937 35.8001L43.498 35.2857L42.498 35.2773ZM42.6523 16.7627L43.6523 16.771L43.6607 15.7627H42.6523V16.7627ZM25.3662 16.7627V15.7627H24.3571L24.3663 16.7718L25.3662 16.7627ZM58.0938 15.9941H59.0938V15.7485L58.9799 15.5308L58.0938 15.9941ZM58.0938 16.7627V17.7627H59.0938V16.7627H58.0938ZM49.8242 16.7627L49.1171 17.4697L49.41 17.7627H49.8242V16.7627ZM44.0625 11V10H41.6486L43.3553 11.707L44.0625 11ZM55.4824 11L56.3686 10.5366L56.088 10H55.4824V11ZM49.1055 16.8027L48.1055 16.8063L48.2588 59.404L49.2588 59.4004L50.2588 59.3968L50.1055 16.7991L49.1055 16.8027ZM49.2588 59.4004V58.4004H48.4912V59.4004V60.4004H49.2588V59.4004ZM48.4912 59.4004L49.0362 58.5619L42.8897 54.5668L42.3447 55.4053L41.7997 56.2437L47.9462 60.2388L48.4912 59.4004ZM42.3447 55.4053L43.3447 55.4116L43.4219 43.2739L42.4219 43.2676L41.4219 43.2612L41.3447 55.3989L42.3447 55.4053ZM42.4219 43.2676L41.905 42.4115C39.3097 43.9785 36.8487 44.7255 34.5088 44.7256L34.5088 45.7256L34.5088 46.7256C37.2905 46.7255 40.1052 45.8344 42.9387 44.1236L42.4219 43.2676ZM34.5088 45.7256V44.7256C32.6718 44.7256 30.9037 44.303 29.1943 43.4483L28.7471 44.3428L28.2999 45.2372C30.2778 46.2261 32.3511 46.7256 34.5088 46.7256V45.7256ZM28.7471 44.3428L29.1943 43.4483C27.4414 42.5719 25.8598 41.4528 24.4475 40.0892L23.7529 40.8086L23.0583 41.528C24.6166 43.0326 26.3651 44.2698 28.2999 45.2372L28.7471 44.3428ZM23.7529 40.8086L24.4475 40.0892C23.0246 38.7154 21.9115 37.2834 21.0956 35.7955L20.2188 36.2764L19.3419 36.7572C20.2673 38.4446 21.5108 40.0338 23.0583 41.528L23.7529 40.8086ZM20.2188 36.2764L21.0956 35.7955C20.2705 34.291 19.8782 33.0094 19.8351 31.9337L18.8359 31.9736L17.8367 32.0136C17.8961 33.4987 18.4256 35.0863 19.3419 36.7572L20.2188 36.2764ZM18.8359 31.9736L19.8334 31.9024C19.7837 31.206 19.7598 30.5643 19.7598 29.9765L18.7598 29.9766L17.7598 29.9766C17.7598 30.6178 17.7858 31.3075 17.8385 32.0449L18.8359 31.9736ZM18.7598 29.9766H19.7598V22.7549H18.7598H17.7598V29.9766H18.7598ZM18.7598 22.7549L19.7594 22.7805C19.8109 20.7744 19.8359 18.7683 19.8359 16.7627L18.8359 16.7627L17.8359 16.7627C17.8359 18.7517 17.8111 20.7407 17.7601 22.7292L18.7598 22.7549ZM18.8359 16.7627V15.7627H13.6123V16.7627V17.7627H18.8359V16.7627ZM13.6123 16.7627L14.4984 16.2992L11.8861 11.3051L11 11.7686L10.1139 12.2321L12.7262 17.2262L13.6123 16.7627ZM11 11.7686H12V11H11H10V11.7686H11ZM11 11V12H43.3027V11V10H11V11ZM43.3027 11L42.5956 11.7071L48.3984 17.5098L49.1055 16.8027L49.8126 16.0956L44.0098 10.2929L43.3027 11ZM25.5195 33.6641L24.5195 33.6641C24.5196 36.2471 25.1083 38.3545 26.5029 39.7491L27.21 39.042L27.9171 38.3349C27.0581 37.4759 26.5196 35.9978 26.5195 33.6641L25.5195 33.6641ZM27.21 39.042L26.5029 39.7491C27.769 41.0152 29.2146 41.7314 30.8213 41.7314V40.7314V39.7314C29.8672 39.7314 28.9044 39.3222 27.9171 38.3349L27.21 39.042ZM30.8213 40.7314L30.8213 41.7314C32.5657 41.7314 34.4406 41.1813 36.4256 40.162L35.9688 39.2725L35.5119 38.3829C33.7071 39.3097 32.1498 39.7314 30.8212 39.7314L30.8213 40.7314ZM35.9688 39.2725L36.416 40.1669C38.4188 39.1655 40.6384 37.8049 43.0727 36.0958L42.498 35.2773L41.9234 34.4589C39.5437 36.1297 37.4109 37.4333 35.5215 38.378L35.9688 39.2725ZM42.498 35.2773L43.498 35.2857L43.6523 16.771L42.6523 16.7627L41.6524 16.7544L41.4981 35.269L42.498 35.2773ZM42.6523 16.7627V15.7627H25.3662V16.7627V17.7627H42.6523V16.7627ZM25.3662 16.7627L24.3663 16.7718L24.5196 33.6731L25.5195 33.6641L26.5195 33.655L26.3662 16.7536L25.3662 16.7627ZM58.0938 15.9941H57.0938V16.7627H58.0938H59.0938V15.9941H58.0938ZM58.0938 16.7627V15.7627H49.8242V16.7627V17.7627H58.0938V16.7627ZM49.8242 16.7627L50.5314 16.0556L44.7697 10.293L44.0625 11L43.3553 11.707L49.1171 17.4697L49.8242 16.7627ZM44.0625 11V12H55.4824V11V10H44.0625V11ZM55.4824 11L54.5963 11.4634L57.2076 16.4575L58.0938 15.9941L58.9799 15.5308L56.3686 10.5366L55.4824 11Z" fill="#401E09" mask="url(#path-1-outside-1_1_482)"/>
</g>
<defs>
<filter id="filter0_d_1_482" x="0" y="0" width="69.0938" height="70.4004" filterUnits="userSpaceOnUse" color-interpolation-filters="sRGB">
<feFlood flood-opacity="0" result="BackgroundImageFix"/>
<feColorMatrix in="SourceAlpha" type="matrix" values="0 0 0 0 0 0 0 0 0 0 0 0 0 0 0 0 0 0 127 0" result="hardAlpha"/>
<feOffset/>
<feGaussianBlur stdDeviation="5"/>
<feComposite in2="hardAlpha" operator="out"/>
<feColorMatrix type="matrix" values="0 0 0 0 0 0 0 0 0 0 0 0 0 0 0 0 0 0 0.7 0"/>
<feBlend mode="normal" in2="BackgroundImageFix" result="effect1_dropShadow_1_482"/>
<feBlend mode="normal" in="SourceGraphic" in2="effect1_dropShadow_1_482" result="shape"/>
</filter>
</defs>
</svg>
