<svg width="29" height="28" viewBox="0 0 29 28" fill="none" xmlns="http://www.w3.org/2000/svg">
<g filter="url(#filter0_d_136_21313)">
<path d="M10.5804 19.37L14.1361 17.2253L17.6917 19.3982L16.7605 15.3346L19.8928 12.6256L15.7728 12.2587L14.1361 8.42088L12.4993 12.2305L8.37931 12.5973L11.5117 15.3346L10.5804 19.37ZM14.1361 18.5539L10.0386 21.0282C9.91821 21.0876 9.80646 21.1117 9.70337 21.1004C9.60102 21.0884 9.50132 21.053 9.40424 20.9943C9.30641 20.9341 9.23267 20.8491 9.183 20.7392C9.13333 20.6293 9.12882 20.5093 9.16946 20.3791L10.2599 15.7399L6.65342 12.6131C6.55183 12.5304 6.48485 12.4314 6.45249 12.3163C6.42014 12.2011 6.42729 12.0909 6.47394 11.9855C6.5206 11.8802 6.58268 11.7937 6.66019 11.7259C6.73845 11.6605 6.8438 11.6161 6.97625 11.5927L11.7352 11.1773L13.5909 6.78415C13.642 6.65999 13.7158 6.57044 13.8121 6.51551C13.9084 6.46057 14.0164 6.43311 14.1361 6.43311C14.2557 6.43311 14.3641 6.46057 14.4612 6.51551C14.5582 6.57044 14.6316 6.65999 14.6813 6.78415L16.537 11.1773L21.2948 11.5927C21.4279 11.6153 21.5337 11.6601 21.6119 11.7271C21.6902 11.7933 21.7527 11.8794 21.7993 11.9855C21.8452 12.0909 21.852 12.2011 21.8196 12.3163C21.7873 12.4314 21.7203 12.5304 21.6187 12.6131L18.0123 15.7399L19.1027 20.3791C19.1448 20.5078 19.1407 20.6274 19.0903 20.7381C19.0398 20.8487 18.9657 20.9337 18.8679 20.9932C18.7716 21.0534 18.6719 21.0891 18.5688 21.1004C18.4664 21.1117 18.355 21.0876 18.2346 21.0282L14.1361 18.5539Z" fill="#6D85FF"/>
</g>
<defs>
<filter id="filter0_d_136_21313" x="-0.000403404" y="8.4877e-05" width="28.2733" height="27.536" filterUnits="userSpaceOnUse" color-interpolation-filters="sRGB">
<feFlood flood-opacity="0" result="BackgroundImageFix"/>
<feColorMatrix in="SourceAlpha" type="matrix" values="0 0 0 0 0 0 0 0 0 0 0 0 0 0 0 0 0 0 127 0" result="hardAlpha"/>
<feOffset/>
<feGaussianBlur stdDeviation="3.21651"/>
<feComposite in2="hardAlpha" operator="out"/>
<feColorMatrix type="matrix" values="0 0 0 0 0.109804 0 0 0 0 0.105882 0 0 0 0 0.12549 0 0 0 0.5 0"/>
<feBlend mode="normal" in2="BackgroundImageFix" result="effect1_dropShadow_136_21313"/>
<feBlend mode="normal" in="SourceGraphic" in2="effect1_dropShadow_136_21313" result="shape"/>
</filter>
</defs>
</svg>
