<svg version="1.2" xmlns="http://www.w3.org/2000/svg" viewBox="0 0 271 298" width="271" height="298">
	<defs>
		<linearGradient id="g1" x2="1" gradientUnits="userSpaceOnUse" gradientTransform="matrix(262.995,-355.483,321.321,237.721,.112,354.853)">
			<stop offset="0" stop-color="#ff5555"/>
			<stop offset="1" stop-color="#ef4444"/>
		</linearGradient>
		<linearGradient id="g2" x2="1" gradientUnits="userSpaceOnUse" gradientTransform="matrix(247.311,-247.31,235.825,235.826,12,267.055)">
			<stop offset="0" stop-color="#ffffff"/>
			<stop offset="1" stop-color="#f87171"/>
		</linearGradient>
	</defs>
	<style>
		.s0 { fill: #301407;stroke: url(#g1);stroke-miterlimit:16;stroke-width: 4 } 
		.s1 { fill: #ef4444 } 
		.s2 { fill: none;stroke: url(#g2);stroke-miterlimit:16;stroke-width: 4 } 
	</style>
	<path class="s0" d="m268.22 146.72v0.03c0.78 23.32-3.3 53.13-21.14 78-17.79 24.79-49.48 44.98-104.6 48.72-16.71 1.13-37.86 1.32-56.62 4.33-14.61 2.35-28.31 6.46-37.59 14.45 1.15-5.22 1.66-11.71 0.42-19.79-2.12-13.89-9.35-32.32-26.9-56.99-21.99-34.34-27.89-94.21-5.59-141.75 11.12-23.71 29.24-44.3 55.83-57.15 26.33-12.72 61.13-17.93 105.97-10.86 2.35 14.23 8.92 34.84 22.71 52.75 14.04 18.25 35.54 33.67 67.51 36.66z"/>
	<g>
		<path class="s1" d="m259.23 145.67v-52.87c-54.42-14.5-70.42-56-77.92-79.21-171.5-29.63-192.38 132.08-151.35 196.15 27.58 43.06 27.19 52.56 27.19 67.06 19.16-13.07 54.15-10.98 85.1-13.07 101.93-6.92 118.42-74.87 116.98-118.06z"/>
		<path class="s2" d="m257.23 145.71v0.03c0.71 21.35-3.02 48.64-19.35 71.4-16.27 22.67-45.27 41.17-95.76 44.59-7.7 0.52-15.65 0.78-23.6 1.09-7.94 0.3-15.86 0.64-23.42 1.33-13.56 1.24-26.24 3.62-35.96 9.07-0.05-5.9-0.46-11.64-3.35-19.9-3.44-9.8-10.34-23.1-24.15-44.66-20.12-31.42-25.15-87.12-3.9-131.26 10.59-22.01 27.68-41.09 52.65-52.86 24.75-11.67 57.4-16.25 99.4-9.18 7.64 23.37 24.07 64.08 77.44 78.97z"/>
	</g>
</svg>