<svg width="271" height="302" viewBox="0 0 271 302" fill="none" xmlns="http://www.w3.org/2000/svg">
<g filter="url(#filter0_i_68_30860)">
<path d="M270.168 154.302V207.698C205.464 212.724 183.585 270.384 179.396 298.392C-3.95929 328.231 -24.6968 154.302 20.0624 84.4143C55.0074 35.3362 48.3314 11.7787 43.2273 0C58.9323 24.8139 108.796 23.2314 142.563 25.5206C253.754 33.059 271.736 107.187 270.168 154.302Z" fill="#301407"/>
</g>
<path d="M268.168 154.269L268.169 154.235C268.945 130.919 264.871 101.107 247.025 76.2354C229.241 51.4484 197.55 31.2528 142.428 27.5156C125.721 26.3829 104.572 26.1928 85.8047 23.1816C71.1999 20.8384 57.4968 16.7208 48.2148 8.73242C49.3704 13.9533 49.8742 20.4432 48.6406 28.5215C46.5188 42.4153 39.2881 60.847 21.7344 85.5137C-0.249909 119.86 -6.22892 180.072 16 227.958C27.0859 251.839 45.1637 272.601 71.7305 285.577C98.0288 298.422 132.809 303.714 177.648 296.645C180.001 282.396 186.644 261.46 200.496 243.218C214.6 224.644 236.182 208.87 268.168 205.863V154.269Z" stroke="url(#paint0_linear_68_30860)" stroke-width="4" stroke-miterlimit="16"/>
<g opacity="0.8">
<g filter="url(#filter1_i_68_30860)">
<path d="M258.917 154.017V206.891C204.5 221.391 188.5 262.891 181 286.103C9 316.891 -11.3815 154.017 29.6488 89.9523C57.2276 46.8906 56.8419 37.3906 56.8419 22.8906C76 35.9651 110.99 33.8665 141.943 35.9651C243.871 42.8754 260.355 110.827 258.917 154.017Z" fill="#2C3E73"/>
</g>
<path d="M256.917 153.983L256.919 153.95C257.63 132.597 253.896 105.31 237.567 82.5518C221.299 59.8779 192.298 41.384 141.808 37.9609C134.107 37.4389 126.155 37.1773 118.206 36.874C110.274 36.5714 102.351 36.2265 94.7871 35.5352C81.2327 34.2963 68.5478 31.9239 58.833 26.4688C58.7765 32.3715 58.366 38.1143 55.4746 46.3721C52.0437 56.1705 45.141 69.4714 31.333 91.0312C11.2117 122.449 6.05761 178.446 27.2422 222.734C37.8015 244.81 54.8794 263.92 79.8682 275.642C104.638 287.26 137.346 291.692 179.473 284.339C187.116 260.972 203.544 220.247 256.917 205.363V153.983Z" stroke="url(#paint1_linear_68_30860)" stroke-width="4" stroke-miterlimit="16"/>
</g>
<defs>
<filter id="filter0_i_68_30860" x="0" y="0" width="270.258" height="301.801" filterUnits="userSpaceOnUse" color-interpolation-filters="sRGB">
<feFlood flood-opacity="0" result="BackgroundImageFix"/>
<feBlend mode="normal" in="SourceGraphic" in2="BackgroundImageFix" result="shape"/>
<feColorMatrix in="SourceAlpha" type="matrix" values="0 0 0 0 0 0 0 0 0 0 0 0 0 0 0 0 0 0 127 0" result="hardAlpha"/>
<feOffset/>
<feGaussianBlur stdDeviation="15"/>
<feComposite in2="hardAlpha" operator="arithmetic" k2="-1" k3="1"/>
<feColorMatrix type="matrix" values="0 0 0 0 0 0 0 0 0 0 0 0 0 0 0 0 0 0 1 0"/>
<feBlend mode="normal" in2="shape" result="effect1_innerShadow_68_30860"/>
</filter>
<filter id="filter1_i_68_30860" x="11.6064" y="22.8906" width="247.394" height="267.045" filterUnits="userSpaceOnUse" color-interpolation-filters="sRGB">
<feFlood flood-opacity="0" result="BackgroundImageFix"/>
<feBlend mode="normal" in="SourceGraphic" in2="BackgroundImageFix" result="shape"/>
<feColorMatrix in="SourceAlpha" type="matrix" values="0 0 0 0 0 0 0 0 0 0 0 0 0 0 0 0 0 0 127 0" result="hardAlpha"/>
<feOffset/>
<feGaussianBlur stdDeviation="13.7503"/>
<feComposite in2="hardAlpha" operator="arithmetic" k2="-1" k3="1"/>
<feColorMatrix type="matrix" values="0 0 0 0 0 0 0 0 0 0 0 0 0 0 0 0 0 0 0.5 0"/>
<feBlend mode="normal" in2="shape" result="effect1_innerShadow_68_30860"/>
</filter>
<linearGradient id="paint0_linear_68_30860" x1="134.704" y1="0" x2="134.704" y2="301.418" gradientUnits="userSpaceOnUse">
<stop stop-color="#F7DF6E"/>
<stop offset="1" stop-color="#B27A18"/>
</linearGradient>
<linearGradient id="paint1_linear_68_30860" x1="134.739" y1="12.5708" x2="134.739" y2="288.877" gradientUnits="userSpaceOnUse">
<stop stop-color="#F7DF6E"/>
<stop offset="1" stop-color="#B27A18"/>
</linearGradient>
</defs>
</svg>
