<svg version="1.2" xmlns="http://www.w3.org/2000/svg" viewBox="0 0 271 302" width="271" height="302">
	<defs>
		<linearGradient id="g1" x2="1" gradientUnits="userSpaceOnUse" gradientTransform="matrix(-264.124,355.672,-320.303,-237.858,270.049,-53.538)">
			<stop offset="0" stop-color="#ffffff"/>
			<stop offset="1" stop-color="#facd18"/>
		</linearGradient>
		<linearGradient id="g2" x2="1" gradientUnits="userSpaceOnUse" gradientTransform="matrix(-247.478,247.478,-237.031,-237.031,258.478,32.946)">
			<stop offset="0" stop-color="#ffffff"/>
			<stop offset="1" stop-color="#fde047"/>
		</linearGradient>
	</defs>
	<style>
		.s0 { fill: #301407 } 
		.s1 { fill: none;stroke: url(#g1);stroke-miterlimit:16;stroke-width: 4 } 
		.s2 { fill: #facc15 } 
		.s3 { fill: none;stroke: url(#g2);stroke-miterlimit:16;stroke-width: 4 } 
	</style>
	<g>
		<path class="s0" d="m0.09 154.8v53.4c64.7 5.02 85.5 62.29 89.69 90.3 183.35 29.84 205.18-143.7 160.42-213.58-34.95-49.08-28.27-72.64-23.17-84.42-15.7 24.81-65.57 23.23-99.33 25.52-111.2 7.54-129.18 81.67-127.61 128.78z"/>
	</g>
	<path class="s1" d="m2.09 154.77v-0.03c-0.78-23.32 3.3-53.13 21.14-78 17.79-24.79 49.48-44.99 104.6-48.72 16.71-1.14 37.86-1.33 56.62-4.34 14.61-2.34 28.31-6.46 37.59-14.45-1.15 5.22-1.66 11.71-0.42 19.79 2.12 13.9 9.35 32.33 26.9 56.99 21.98 34.34 27.7 94.45 5.2 142.24-11.22 23.84-29.43 44.55-56.1 57.49-26.4 12.81-61.25 18.08-106.09 11.01-2.34-14.22-8.71-35.06-22.3-53.22-13.84-18.49-35.16-34.16-67.14-37.17z"/>
	<g>
		<path class="s2" d="m11.08 154.13v52.87c54.42 14.5 70.42 56 77.92 79.21 172.5 32.29 192.38-132.08 151.35-196.15-27.58-43.06-27.19-52.56-27.19-67.06-19.16 13.07-54.15 10.98-85.1 13.07-101.93 6.91-118.42 74.87-116.98 118.06z"/>
		<path class="s3" d="m13.08 154.09v-0.03c-0.71-21.35 3.02-48.64 19.35-71.4 16.27-22.67 45.27-41.17 95.76-44.59 7.7-0.52 15.65-0.78 23.6-1.09 7.94-0.3 15.86-0.64 23.42-1.34 13.56-1.23 26.24-3.61 35.96-9.06 0.05 5.9 0.46 11.64 3.35 19.9 3.44 9.8 10.34 23.1 24.15 44.66 20.12 31.42 25.4 87.79 4.27 132.27-10.53 22.17-27.59 41.32-52.59 52.97-24.79 11.55-57.56 15.8-99.82 8.08-7.64-23.37-24.07-64.1-77.45-78.99z"/>
	</g>
</svg>