<svg version="1.2" xmlns="http://www.w3.org/2000/svg" viewBox="0 0 271 302" width="271" height="302">
	<defs>
		<linearGradient id="g1" x2="1" gradientUnits="userSpaceOnUse" gradientTransform="matrix(264.5,356,-321.758,239.06,.394,-54)">
			<stop offset="0" stop-color="#ffffff"/>
			<stop offset="1" stop-color="#4087f6"/>
		</linearGradient>
		<linearGradient id="g2" x2="1" gradientUnits="userSpaceOnUse" gradientTransform="matrix(247.395,247.395,-236.381,236.381,12,32.825)">
			<stop offset="0" stop-color="#ffffff"/>
			<stop offset="1" stop-color="#60a5fa"/>
		</linearGradient>
	</defs>
	<style>
		.s0 { fill: #301407 } 
		.s1 { fill: none;stroke: url(#g1);stroke-miterlimit:16;stroke-width: 4 } 
		.s2 { fill: #3b82f6 } 
		.s3 { fill: none;stroke: url(#g2);stroke-miterlimit:16;stroke-width: 4 } 
	</style>
	<g>
		<path class="s0" d="m270.56 154.41v53.4c-64.7 5.02-86.58 62.68-90.77 90.69-183.35 29.84-204.09-144.09-159.33-213.98 34.94-49.08 28.27-72.63 23.16-84.41 15.71 24.81 65.57 23.23 99.34 25.52 111.19 7.54 129.17 81.66 127.6 128.78z"/>
	</g>
	<path class="s1" d="m268.56 154.38v-0.04c0.78-23.31-3.3-53.12-21.14-78-17.79-24.78-49.48-44.98-104.6-48.72-16.7-1.13-37.85-1.32-56.62-4.33-14.61-2.34-28.31-6.46-37.59-14.45 1.15 5.22 1.66 11.71 0.43 19.79-2.13 13.89-9.36 32.33-26.91 56.99-21.99 34.35-27.96 94.56-5.74 142.45 11.09 23.88 29.17 44.64 55.73 57.62 26.3 12.84 61.08 18.13 105.92 11.06 2.36-14.25 9-35.18 22.85-53.42 14.1-18.58 35.69-34.35 67.67-37.36z"/>
	<g>
		<path class="s2" d="m259.31 154.13v52.87c-54.41 14.5-70.41 56-77.91 79.21-172.01 30.79-192.39-132.08-151.36-196.15 27.58-43.06 27.2-52.56 27.2-67.06 19.15 13.07 54.15 10.98 85.1 13.07 101.93 6.91 118.41 74.87 116.97 118.06z"/>
		<path class="s3" d="m257.31 154.09v-0.03c0.71-21.35-3.02-48.64-19.35-71.4-16.27-22.67-45.27-41.17-95.76-44.59-7.7-0.52-15.65-0.78-23.6-1.09-7.93-0.3-15.85-0.64-23.42-1.34-13.55-1.23-26.24-3.61-35.95-9.06-0.06 5.9-0.47 11.64-3.36 19.9-3.43 9.8-10.33 23.1-24.14 44.66-20.12 31.42-25.28 87.42-4.09 131.7 10.56 22.08 27.63 41.19 52.62 52.91 24.77 11.62 57.48 16.05 99.61 8.7 7.64-23.37 24.07-64.09 77.44-78.98z"/>
	</g>
</svg>