<svg version="1.2" xmlns="http://www.w3.org/2000/svg" viewBox="0 0 271 299" width="271" height="299">
	<defs>
		<linearGradient id="g1" x2="1" gradientUnits="userSpaceOnUse" gradientTransform="matrix(264.5,356,-321.758,239.059,.394,-56.999)">
			<stop offset="0" stop-color="#ff5555"/>
			<stop offset="1" stop-color="#ef4444"/>
		</linearGradient>
		<linearGradient id="g2" x2="1" gradientUnits="userSpaceOnUse" gradientTransform="matrix(247.394,247.395,-236.381,236.38,12,29.825)">
			<stop offset="0" stop-color="#ffffff"/>
			<stop offset="1" stop-color="#60a5fa"/>
		</linearGradient>
	</defs>
	<style>
		.s0 { fill: #301407;stroke: url(#g1);stroke-miterlimit:16;stroke-width: 4 } 
		.s1 { fill: #3b82f6 } 
		.s2 { fill: none;stroke: url(#g2);stroke-miterlimit:16;stroke-width: 4 } 
	</style>
	<path class="s0" d="m268.56 151.38v-0.03c0.78-23.32-3.3-53.13-21.14-78.01-17.79-24.78-49.48-44.98-104.6-48.71-16.7-1.14-37.85-1.33-56.62-4.34-14.61-2.34-28.31-6.46-37.59-14.45 1.15 5.22 1.66 11.71 0.42 19.79-2.12 13.89-9.35 32.33-26.9 56.99-21.99 34.35-27.96 94.56-5.74 142.45 11.09 23.88 29.17 44.64 55.73 57.62 26.3 12.84 61.08 18.13 105.92 11.06 2.36-14.24 9-35.18 22.85-53.42 14.1-18.58 35.69-34.35 67.67-37.36z"/>
	<g>
		<path class="s1" d="m259.31 151.13v52.87c-54.42 14.5-70.42 56-77.92 79.21-172 30.79-192.38-132.08-151.35-196.15 27.58-43.06 27.2-52.56 27.2-67.06 19.15 13.07 54.14 10.98 85.1 13.07 101.92 6.91 118.41 74.87 116.97 118.06z"/>
		<path class="s2" d="m257.31 151.09v-0.03c0.71-21.35-3.02-48.64-19.35-71.4-16.27-22.67-45.27-41.17-95.76-44.59-7.7-0.52-15.65-0.78-23.6-1.09-7.93-0.3-15.85-0.64-23.42-1.34-13.55-1.23-26.24-3.61-35.95-9.06-0.06 5.9-0.47 11.64-3.36 19.9-3.43 9.8-10.33 23.1-24.14 44.66-20.12 31.42-25.28 87.42-4.09 131.7 10.56 22.08 27.63 41.19 52.62 52.91 24.77 11.62 57.48 16.05 99.61 8.7 7.64-23.37 24.07-64.09 77.44-78.98z"/>
	</g>
</svg>