<svg version="1.2" xmlns="http://www.w3.org/2000/svg" viewBox="0 0 272 299" width="272" height="299">
	<defs>
		<linearGradient id="g1" x2="1" gradientUnits="userSpaceOnUse" gradientTransform="matrix(-264.269,-355.716,320.308,-237.963,271.049,356.08)">
			<stop offset="0" stop-color="#ff5555"/>
			<stop offset="1" stop-color="#ef4444"/>
		</linearGradient>
		<linearGradient id="g2" x2="1" gradientUnits="userSpaceOnUse" gradientTransform="matrix(-247.146,-247.145,235.948,-235.949,259.146,268.185)">
			<stop offset="0" stop-color="#ffffff"/>
			<stop offset="1" stop-color="#a3e635"/>
		</linearGradient>
	</defs>
	<style>
		.s0 { fill: #301407;stroke: url(#g1);stroke-miterlimit:16;stroke-width: 4 } 
		.s1 { fill: #84cc16 } 
		.s2 { fill: none;stroke: url(#g2);stroke-miterlimit:16;stroke-width: 4 } 
	</style>
	<path class="s0" d="m3.09 147.75v0.03c-0.78 23.32 3.3 53.13 21.14 78 17.79 24.79 49.48 44.98 104.6 48.72 16.71 1.13 37.86 1.32 56.62 4.34 14.61 2.34 28.31 6.46 37.59 14.45-1.15-5.23-1.66-11.72-0.42-19.79 2.12-13.9 9.35-32.33 26.9-57 21.98-34.34 27.7-94.48 5.2-142.3-11.22-23.85-29.43-44.58-56.1-57.54-26.4-12.82-61.25-18.09-106.09-11.02-2.34 14.22-8.71 35.1-22.3 53.28-13.84 18.52-35.16 34.23-67.14 37.24z"/>
	<g>
		<path class="s1" d="m12.08 147.1v-52.88c54.42-14.49 70.42-55.99 77.92-79.21 170.5-31.62 192.38 132.09 151.35 196.15-27.58 43.07-27.19 52.57-27.19 67.07-19.16-13.08-54.15-10.98-85.1-13.08-101.93-6.91-118.42-74.86-116.98-118.05z"/>
		<path class="s2" d="m14.08 147.13v0.04c-0.71 21.35 3.02 48.64 19.35 71.39 16.27 22.68 45.27 41.17 95.76 44.59 7.7 0.53 15.65 0.79 23.6 1.09 7.94 0.3 15.86 0.65 23.42 1.34 13.56 1.24 26.24 3.61 35.96 9.07 0.05-5.91 0.46-11.65 3.35-19.91 3.44-9.8 10.34-23.1 24.15-44.66 20.11-31.4 24.9-87.61 3.53-132.01-10.66-22.13-27.78-41.27-52.7-52.95-24.7-11.58-57.22-15.91-98.97-8.35-7.64 23.36-24.07 64.1-77.45 78.98z"/>
	</g>
</svg>