<svg width="21" height="25" viewBox="0 0 21 25" fill="none" xmlns="http://www.w3.org/2000/svg">
<g filter="url(#filter0_d_136_35540)">
<path fill-rule="evenodd" clip-rule="evenodd" d="M5.65106 6.56793C5.65106 7.05383 5.84409 7.51984 6.18768 7.86343C6.53127 8.20702 6.99727 8.40004 7.48318 8.40004C7.96909 8.40004 8.4351 8.20702 8.77868 7.86343C9.12227 7.51984 9.3153 7.05383 9.3153 6.56793C9.3153 6.08202 9.12227 5.61601 8.77868 5.27242C8.4351 4.92884 7.96909 4.73581 7.48318 4.73581C6.99727 4.73581 6.53127 4.92884 6.18768 5.27242C5.84409 5.61601 5.65106 6.08202 5.65106 6.56793ZM6.38391 6.56793C6.38391 6.85947 6.49973 7.13908 6.70588 7.34523C6.91203 7.55138 7.19164 7.6672 7.48318 7.6672C7.77473 7.6672 8.05433 7.55138 8.26048 7.34523C8.46664 7.13908 8.58245 6.85947 8.58245 6.56793C8.58245 6.27638 8.46664 5.99678 8.26048 5.79063C8.05433 5.58447 7.77473 5.46866 7.48318 5.46866C7.19164 5.46866 6.91203 5.58447 6.70588 5.79063C6.49973 5.99678 6.38391 6.27638 6.38391 6.56793ZM9.56593 7.87679C10.0896 7.62689 10.6315 7.62359 11.0763 7.67636C12.3005 7.82146 13.2133 8.52866 13.8124 9.15304C14.3056 9.66677 14.6709 10.2204 14.8443 10.4832L14.8468 10.4868C14.8835 10.5418 14.9069 10.5777 14.9227 10.6004C15.0845 10.8389 15.1462 11.1315 15.0944 11.415C15.0427 11.6986 14.8816 11.9505 14.6459 12.1164C14.4103 12.2824 14.1188 12.3491 13.8344 12.3023C13.55 12.2555 13.2954 12.0988 13.1254 11.866C13.0814 11.8038 13.0338 11.7327 12.9854 11.6594L12.9836 11.6564C12.815 11.4029 12.6017 11.0834 12.3042 10.7587C12.5226 11.3644 12.7293 11.9459 12.7721 12.0929C12.8195 12.2583 12.8299 12.4322 12.8026 12.6022C12.7861 12.7066 12.7589 12.7927 12.7388 12.8492C12.6985 12.9627 12.6465 13.0639 12.6061 13.1383C12.5222 13.2922 12.4119 13.4629 12.2991 13.6271C12.0693 13.9624 11.7634 14.3705 11.4636 14.7593C11.1987 15.1038 10.9294 15.4464 10.7088 15.7267L10.6194 15.8395C10.5007 15.9905 10.4028 16.1155 10.331 16.2085L10.3061 16.2415C10.3061 16.2415 10.2863 16.3196 10.2742 16.3716C10.2328 16.5497 10.1845 16.7845 10.1324 17.0473L10.0302 17.5738L10.0291 17.5793C9.96057 17.9351 9.89205 18.2909 9.83892 18.5309C9.80906 18.6732 9.75128 18.8081 9.66892 18.9279C9.58657 19.0477 9.48128 19.1499 9.35914 19.2287C9.23701 19.3076 9.10045 19.3614 8.95738 19.3871C8.81431 19.4128 8.66756 19.4098 8.52564 19.3784C8.38371 19.347 8.24942 19.2878 8.13054 19.2041C8.01165 19.1205 7.91054 19.0141 7.83305 18.8911C7.75556 18.7681 7.70323 18.631 7.67909 18.4877C7.65495 18.3443 7.65947 18.1976 7.69241 18.056C7.73858 17.8461 7.79867 17.5368 7.86536 17.1894C7.90054 17.0055 7.93791 16.812 7.97565 16.6215C8.02411 16.3715 8.07652 16.1223 8.13285 15.874C8.15648 15.7705 8.18275 15.6676 8.21163 15.5655L8.21236 15.5629C8.24841 15.4311 8.29969 15.3039 8.36516 15.184C8.42989 15.0785 8.50124 14.9771 8.57879 14.8806L8.58905 14.8674C8.66893 14.7634 8.77409 14.6292 8.89171 14.4797L8.98112 14.3669L8.98185 14.3658C9.21183 14.0742 9.44061 13.7817 9.66816 13.4882L8.93788 11.984C8.49896 12.2923 7.98215 12.4708 7.44654 12.4992C6.53964 12.548 5.74743 12.1504 5.44917 12.0009L5.43964 11.9961C5.40519 11.9785 5.38211 11.9668 5.36525 11.9595C5.23468 11.8979 5.11752 11.8112 5.02046 11.7043C4.9234 11.5974 4.84833 11.4725 4.79956 11.3366C4.75078 11.2007 4.72925 11.0566 4.73618 10.9124C4.74312 10.7682 4.77839 10.6267 4.83999 10.4962C4.90158 10.3656 4.98829 10.2484 5.09516 10.1514C5.20203 10.0543 5.32697 9.97925 5.46286 9.93047C5.59874 9.8817 5.74289 9.86016 5.8871 9.8671C6.0313 9.87404 6.17273 9.90931 6.3033 9.9709C6.34531 9.99044 6.38684 10.0104 6.42788 10.0306H6.42861C6.76756 10.1944 7.04311 10.3194 7.32928 10.304C7.44947 10.2974 7.58285 10.2626 7.73968 10.1365C7.91006 9.99985 8.15227 9.71953 8.40034 9.15048C8.64108 8.59865 9.0141 8.13988 9.56593 7.87679ZM10.3061 16.2411C10.3101 16.225 10.3024 16.254 10.3061 16.2411V16.2411ZM10.9899 8.40407C10.6106 8.359 10.2277 8.37329 9.88142 8.53819C9.52599 8.70747 9.2607 9.01087 9.07236 9.44325C8.79131 10.0882 8.48608 10.4773 8.19844 10.7081C7.91519 10.9353 7.63305 11.0214 7.36849 11.0357C6.87785 11.0621 6.44401 10.8525 6.13621 10.7034L6.10983 10.6909L5.99074 10.6338C5.90324 10.5947 5.80391 10.5915 5.71405 10.6247C5.62419 10.658 5.55095 10.7252 5.51002 10.8118C5.46909 10.8985 5.46374 10.9977 5.4951 11.0883C5.52647 11.1788 5.59206 11.2535 5.67781 11.2963L5.76539 11.3395L5.76832 11.341C6.06292 11.489 6.7049 11.8052 7.4077 11.7675C7.81663 11.7455 8.24717 11.6084 8.65684 11.2801C8.71146 11.2363 8.76427 11.1902 8.81513 11.142C8.857 11.1026 8.90756 11.0736 8.96271 11.0574C9.01786 11.0411 9.07606 11.0381 9.1326 11.0485C9.18914 11.0589 9.24243 11.0825 9.28818 11.1173C9.33392 11.1522 9.37083 11.1973 9.39591 11.249L10.4263 13.3717C10.456 13.4328 10.4681 13.501 10.4612 13.5686C10.4543 13.6363 10.4288 13.7006 10.3875 13.7546L10.3021 13.8656C10.0426 14.2027 9.77846 14.5384 9.5575 14.819L9.55641 14.8209L9.46773 14.9334C9.34974 15.0836 9.24678 15.2141 9.16983 15.3145L9.16616 15.3189C9.10057 15.4042 9.03169 15.4951 9.00127 15.5479C8.9617 15.6175 8.93385 15.7069 8.91553 15.7699C8.89355 15.8461 8.87009 15.9385 8.84664 16.04C8.79937 16.243 8.74698 16.498 8.69458 16.7633C8.6572 16.9524 8.62019 17.144 8.58465 17.3276L8.58392 17.3334C8.51796 17.6742 8.45677 17.9934 8.40803 18.2143C8.39001 18.308 8.40924 18.4051 8.46165 18.4848C8.51406 18.5646 8.59551 18.6207 8.68868 18.6413C8.78185 18.6619 8.87939 18.6454 8.96055 18.5952C9.04171 18.545 9.1001 18.4652 9.12329 18.3726C9.17423 18.1436 9.24055 17.7973 9.31053 17.4353V17.4346L9.4135 16.9051C9.4659 16.6413 9.5161 16.3965 9.56007 16.206C9.57779 16.1283 9.59747 16.0511 9.61906 15.9744C9.6314 15.9321 9.65126 15.8924 9.67769 15.8571L9.75024 15.7615C9.84736 15.636 9.94507 15.5109 10.0434 15.3863L10.1321 15.2738C10.3842 14.9548 10.6346 14.6344 10.8832 14.3127C11.1808 13.9257 11.4768 13.5307 11.6945 13.2134C11.7908 13.0759 11.8803 12.9338 11.9627 12.7876C11.9957 12.728 12.0244 12.6662 12.0488 12.6026C12.0623 12.5656 12.0722 12.5274 12.0785 12.4886C12.0893 12.4246 12.0858 12.3591 12.0682 12.2966C12.0235 12.1434 11.7286 11.3204 11.4537 10.5605L11.1855 9.8203C11.1606 9.75186 11.1567 9.67755 11.1742 9.60687C11.1918 9.53619 11.23 9.47233 11.284 9.42345C11.338 9.37458 11.4053 9.3429 11.4774 9.33246C11.5494 9.32202 11.623 9.33329 11.6886 9.36484C12.0932 9.55904 12.4486 9.84852 12.7549 10.1677C13.1415 10.5707 13.4071 10.9701 13.5904 11.2461L13.594 11.2508C13.6446 11.3278 13.6867 11.3908 13.7245 11.4443C13.7804 11.5237 13.8657 11.5777 13.9614 11.5943C14.0572 11.6109 14.1556 11.5888 14.2351 11.5328C14.3145 11.4768 14.3685 11.3916 14.3851 11.2958C14.4017 11.2 14.3796 11.1016 14.3236 11.0222C14.3005 10.9896 14.2704 10.9441 14.2382 10.895L14.2349 10.8903C14.0634 10.6301 13.7285 10.1237 13.2837 9.66054C12.741 9.09478 11.9748 8.52133 10.9899 8.40407Z" fill="#a78bfa"/>
<path fill-rule="evenodd" clip-rule="evenodd" d="M12.4068 14.1815C12.446 14.1271 12.4993 14.0844 12.5611 14.0582C12.6228 14.032 12.6905 14.0233 12.7569 14.0329C12.8233 14.0426 12.8857 14.0702 12.9374 14.1129C12.9892 14.1556 13.0282 14.2116 13.0503 14.275L13.2426 14.8275L14.7435 14.475C15.0254 14.4135 15.3201 14.4653 15.5641 14.6191C15.8082 14.773 15.9819 15.0166 16.048 15.2974C16.114 15.5783 16.067 15.8738 15.9171 16.1203C15.7671 16.3667 15.5263 16.5444 15.2466 16.6149L12.7813 17.1946C12.5167 17.2568 12.2384 17.2188 12.0002 17.0878C11.762 16.9569 11.5808 16.7423 11.4915 16.4856L11.3119 15.9697C11.2927 15.9141 11.287 15.8548 11.2955 15.7966C11.304 15.7385 11.3263 15.6832 11.3607 15.6355L12.4068 14.1815ZM12.6589 15.3801L12.59 15.1819L12.0668 15.9088L12.184 16.2448C12.2138 16.3303 12.2741 16.4018 12.3534 16.4454C12.4327 16.489 12.5253 16.5018 12.6135 16.4812L15.0788 15.9019C15.1726 15.8789 15.2536 15.8199 15.3041 15.7375C15.3546 15.6552 15.3706 15.5562 15.3485 15.4622C15.3264 15.3682 15.2681 15.2866 15.1862 15.2354C15.1044 15.1841 15.0056 15.1672 14.9113 15.1884L13.0887 15.6164C13.0005 15.6371 12.9078 15.6244 12.8284 15.5808C12.7491 15.5371 12.6887 15.4656 12.6589 15.3801Z" fill="#a78bfa"/>
</g>
<defs>
<filter id="filter0_d_136_35540" x="-0.000444412" y="1.33514e-05" width="20.8134" height="24.1401" filterUnits="userSpaceOnUse" color-interpolation-filters="sRGB">
<feFlood flood-opacity="0" result="BackgroundImageFix"/>
<feColorMatrix in="SourceAlpha" type="matrix" values="0 0 0 0 0 0 0 0 0 0 0 0 0 0 0 0 0 0 127 0" result="hardAlpha"/>
<feOffset/>
<feGaussianBlur stdDeviation="2.3679"/>
<feComposite in2="hardAlpha" operator="out"/>
<feColorMatrix type="matrix" values="0 0 0 0 0.109804 0 0 0 0 0.105882 0 0 0 0 0.12549 0 0 0 0.5 0"/>
<feBlend mode="normal" in2="BackgroundImageFix" result="effect1_dropShadow_136_35540"/>
<feBlend mode="normal" in="SourceGraphic" in2="effect1_dropShadow_136_35540" result="shape"/>
</filter>
</defs>
</svg>
