<svg width="29" height="28" viewBox="0 0 29 28" fill="none" xmlns="http://www.w3.org/2000/svg">
<g filter="url(#filter0_d_136_47196)">
<path d="M10.5804 19.3699L14.1361 17.2252L17.6917 19.3981L16.7605 15.3345L19.8928 12.6254L15.7728 12.2586L14.1361 8.42076L12.4993 12.2304L8.37931 12.5972L11.5117 15.3345L10.5804 19.3699ZM14.1361 18.5538L10.0386 21.028C9.91821 21.0875 9.80646 21.1116 9.70337 21.1003C9.60102 21.0882 9.50132 21.0529 9.40424 20.9942C9.30641 20.934 9.23267 20.8489 9.183 20.7391C9.13333 20.6292 9.12882 20.5092 9.16946 20.379L10.2599 15.7397L6.65342 12.613C6.55183 12.5302 6.48485 12.4313 6.45249 12.3162C6.42014 12.201 6.42729 12.0908 6.47394 11.9854C6.5206 11.8801 6.58268 11.7935 6.66019 11.7258C6.73845 11.6603 6.8438 11.6159 6.97625 11.5926L11.7352 11.1772L13.5909 6.78403C13.642 6.65987 13.7158 6.57032 13.8121 6.51538C13.9084 6.46045 14.0164 6.43298 14.1361 6.43298C14.2557 6.43298 14.3641 6.46045 14.4612 6.51538C14.5582 6.57032 14.6316 6.65987 14.6813 6.78403L16.537 11.1772L21.2948 11.5926C21.4279 11.6152 21.5337 11.66 21.6119 11.7269C21.6902 11.7932 21.7527 11.8793 21.7993 11.9854C21.8452 12.0908 21.852 12.201 21.8196 12.3162C21.7873 12.4313 21.7203 12.5302 21.6187 12.613L18.0123 15.7397L19.1027 20.379C19.1448 20.5077 19.1407 20.6273 19.0903 20.7379C19.0398 20.8486 18.9657 20.9336 18.8679 20.993C18.7716 21.0533 18.6719 21.089 18.5688 21.1003C18.4664 21.1116 18.355 21.0875 18.2346 21.028L14.1361 18.5538Z" fill="#10b981"/>
</g>
<defs>
<filter id="filter0_d_136_47196" x="-0.000403404" y="-3.71933e-05" width="28.2733" height="27.5361" filterUnits="userSpaceOnUse" color-interpolation-filters="sRGB">
<feFlood flood-opacity="0" result="BackgroundImageFix"/>
<feColorMatrix in="SourceAlpha" type="matrix" values="0 0 0 0 0 0 0 0 0 0 0 0 0 0 0 0 0 0 127 0" result="hardAlpha"/>
<feOffset/>
<feGaussianBlur stdDeviation="3.21651"/>
<feComposite in2="hardAlpha" operator="out"/>
<feColorMatrix type="matrix" values="0 0 0 0 0.109804 0 0 0 0 0.105882 0 0 0 0 0.12549 0 0 0 0.5 0"/>
<feBlend mode="normal" in2="BackgroundImageFix" result="effect1_dropShadow_136_47196"/>
<feBlend mode="normal" in="SourceGraphic" in2="effect1_dropShadow_136_47196" result="shape"/>
</filter>
</defs>
</svg>
