<svg width="117" height="208" viewBox="0 0 117 208" fill="none" xmlns="http://www.w3.org/2000/svg">
<path d="M86.4026 186.106C90.9907 193.649 85.807 198.478 78.8191 202.046C68.9331 207.092 44.4738 204.633 36.0999 199.566C28.4145 194.917 25.0042 188.056 28.6637 182.105" fill="white"/>
<path d="M86.4026 186.106C90.9907 193.649 85.807 198.478 78.8191 202.046C68.9331 207.092 44.4738 204.633 36.0999 199.566C28.4145 194.917 25.0042 188.056 28.6637 182.105" stroke="black" stroke-width="4.99999" stroke-linecap="round" stroke-linejoin="round"/>
<path d="M2.54381 130.83C1.48842 150.136 19.6463 180.441 41.156 187.483C52.2626 191.119 77.2593 192.218 86.0838 185.721C101.193 174.596 108.835 160.255 112.288 142.524C113.512 136.239 114.389 128.999 113.466 123.193C109.539 98.4927 95.0602 98.5124 89.4427 97.6358C86.0852 86.895 73.809 79.1152 57.3504 82.3813C57.2237 69.1519 57.628 61.0032 58.7196 48.4817C60.5456 27.537 24.266 22.8194 26.1065 48.4668C27.3602 65.9324 26.1396 80.0753 23.0296 96.4797C18.7828 97.7577 3.64475 110.673 2.54292 130.829L2.54381 130.83Z" fill="white" stroke="black" stroke-width="4.99999" stroke-linecap="round" stroke-linejoin="round"/>
<path d="M54.8459 81.6353C54.8839 94.2577 56.3415 104.072 63.7416 113.773C60.6527 105.678 59.5938 89.5623 59.8309 79.3774L54.8459 81.6353Z" fill="black"/>
<path d="M91.3271 95.4113L86.6377 97.2409C89.0125 104.107 91.6247 111.82 95.3954 115.933C94.0653 112.726 92.8383 101.186 91.3271 95.4113Z" fill="black"/>
<path d="M74.3022 176.75C79.2721 164.835 79.1971 161.405 80.6979 155.323" stroke="black" stroke-width="4.99999" stroke-linecap="round" stroke-linejoin="round"/>
<path d="M62.752 177.612C64.8352 163.485 64.5053 156.496 65.0363 146.96" stroke="black" stroke-width="4.99999" stroke-linecap="round" stroke-linejoin="round"/>
<path d="M48.9403 178.227C49.0599 168.403 48.2031 163.757 47.6489 157.507" stroke="black" stroke-width="4.99999" stroke-linecap="round" stroke-linejoin="round"/>
<path d="M20.8811 94.7712C18.785 109.658 13.2523 133.775 14.9586 141.815C16.4175 136.903 25.2457 100.406 26.2026 92.9368L20.8811 94.7712Z" fill="black"/>
<path d="M26.2256 30.0357C30.7306 19.9422 51.9847 17.6648 59.2937 29.2923C56.4137 9.79543 24.8781 14.8507 26.2256 30.0357Z" fill="black"/>
<path d="M22.67 22.5097C30.9746 5.85456 55.5615 8.57969 62.6498 21.6109C58.489 -3.01065 20.5709 1.43609 22.67 22.5097Z" fill="black"/>
</svg>
